<svg xmlns="http://www.w3.org/2000/svg" xmlns:xlink="http://www.w3.org/1999/xlink" width="32" height="32"><defs><circle id="dialect-american_svg__a" cx="8" cy="8" r="8"/></defs><g fill="none" fill-rule="evenodd" transform="translate(8 8)"><mask id="dialect-american_svg__b" fill="#fff"><use xlink:href="#dialect-american_svg__a"/></mask><use xlink:href="#dialect-american_svg__a" fill="#D8D8D8"/><path fill="#CE1331" fill-rule="nonzero" d="M-4-6h28v2H-4v-2zm0 4h28v2H-4v-2zm0 4h28v2H-4V2zm0 4h28v2H-4V6zm0 4h28v2H-4v-2zm0 4h28v2H-4v-2zm0 4h28v2H-4v-2z" mask="url(#dialect-american_svg__b)"/><path fill="#F0F2FC" fill-rule="nonzero" d="M-4-4h28v2H-4v-2zm0 4h28v2H-4V0zm0 4h28v2H-4V4zm0 4h28v2H-4V8zm0 4h28v2H-4v-2zm0 4h28v2H-4v-2z" mask="url(#dialect-american_svg__b)"/><path fill="#006" fill-rule="nonzero" d="M-21-13H8V8h-29z" mask="url(#dialect-american_svg__b)"/><path fill="#F0F2FC" fill-rule="nonzero" d="m6.05 1.05.222.697H7l-.589.424.228.683-.588-.424-.589.424.228-.69-.589-.423h.728l.222-.69zM4 2.798l.222.69h.727l-.588.424.221.697L4 4.178l-.589.423.222-.69-.582-.424h.721L4 2.797zM1.943 4.544l.228.69h.721l-.582.424.222.69-.589-.424-.582.424.221-.696L1 5.228h.722l.221-.684zm4.108 0 .221.69H7l-.589.424.228.69-.588-.424-.589.424.228-.696-.589-.424h.728l.222-.684z" mask="url(#dialect-american_svg__b)"/></g></svg>