<svg xmlns="http://www.w3.org/2000/svg" width="24" height="24"><g fill="none" fill-rule="evenodd"><circle cx="12" cy="12" r="12" fill="#C0C2CD"/><path fill="#FFFFFE" d="M14.33 13.603a.808.808 0 0 0-.794.957c.07.39.437.656.832.656h1.246l.723-.102c-1.156 1.696-3.162 2.476-5.358 2.132-1.786-.28-3.32-1.489-3.968-3.177-1.47-3.832 1.329-7.49 4.976-7.49 1.9 0 3.567 1.111 4.523 2.456v.029a.81.81 0 0 0 1.122.216.795.795 0 0 0 .236-1.059h.005a6.98 6.98 0 0 0-6.369-3.205c-3.478.234-6.293 3.08-6.492 6.56-.233 4.05 2.98 7.356 6.975 7.356a6.916 6.916 0 0 0 5.257-2.392l-.152.848v.766c0 .395.268.762.657.833a.807.807 0 0 0 .956-.794v-4.59h-4.376"/></g></svg>