<svg xmlns="http://www.w3.org/2000/svg" width="18" height="18" fill="none"><circle cx="9" cy="9" r="7" fill="#15C39A" style="mix-blend-mode:multiply"/><path fill="#000" fill-rule="evenodd" d="M9 2.344a6.656 6.656 0 1 0 0 13.312A6.656 6.656 0 0 0 9 2.344ZM1.594 9a7.406 7.406 0 1 1 14.812 0A7.406 7.406 0 0 1 1.594 9Z" clip-rule="evenodd"/><path fill="#fff" fill-rule="evenodd" d="M9.918 10.518c.042.23.258.388.492.388h.737l.427-.06c-.684 1.003-1.87 1.464-3.167 1.26a3.013 3.013 0 0 1-2.346-1.878c-.869-2.265.786-4.427 2.941-4.427 1.124 0 2.11.674 2.674 1.469.15.216.447.278.663.128a.471.471 0 0 0 .142-.626 4.126 4.126 0 0 0-3.764-1.894c-2.056.137-3.72 1.82-3.838 3.877a4.108 4.108 0 0 0 4.123 4.348 4.09 4.09 0 0 0 3.108-1.414l-.09.501v.453c0 .234.158.45.388.492a.477.477 0 0 0 .565-.469V9.953h-2.587a.477.477 0 0 0-.468.565Z" clip-rule="evenodd"/></svg>