<svg xmlns="http://www.w3.org/2000/svg" width="32" height="32" fill="none"><rect width="26.4" height="26.4" y="5.6" fill="#C6CBDE" rx="5"/><rect width="26.4" height="26.4" x="4.8" y=".8" fill="#fff" stroke="#4D536E" rx="5"/><g clip-path="url(#outlook_svg__a)"><path fill="#0364B8" d="M24.756 5.6H14.442a.847.847 0 0 0-.842.842V7.4l5.813 1.8L25.6 7.4v-.958a.847.847 0 0 0-.843-.842z"/><path fill="#0A2767" d="M26.589 14.842a6.78 6.78 0 0 0 .21-.843.4.4 0 0 0-.2-.346l-.008-.005h-.002l-6.503-3.704a.9.9 0 0 0-.974 0l-6.502 3.704h-.003l-.008.005a.401.401 0 0 0-.2.346c.053.286.122.567.21.843l6.895 5.043 7.085-5.043z"/><path fill="#28A8EA" d="M22 7.4h-4.2l-1.213 1.8 1.212 1.8 4.2 3.6h3.6V11l-3.6-3.6z"/><path fill="#0078D4" fill-rule="evenodd" d="M13.6 7.4h4.2V11h-4.2V7.4z" clip-rule="evenodd"/><path fill="#50D9FF" fill-rule="evenodd" d="M22 7.4h3.6V11H22V7.4z" clip-rule="evenodd"/><path fill="#0364B8" d="M22 14.6 17.8 11h-4.2v3.6l4.2 3.6 6.498 1.06-2.299-4.66z"/><path fill="#0078D4" fill-rule="evenodd" d="M17.8 11H22v3.6h-4.2V11z" clip-rule="evenodd"/><path fill="#064A8C" fill-rule="evenodd" d="M13.6 14.6h4.2v3.6h-4.2v-3.6z" clip-rule="evenodd"/><path fill="#0078D4" fill-rule="evenodd" d="M22 14.6h3.6v3.6H22v-3.6z" clip-rule="evenodd"/><path fill="#0A2767" fill-opacity=".498" d="m19.713 19.53-7.076-5.16.297-.52 6.545 3.727c.08.033.172.03.252-.007l6.558-3.738.298.521-6.873 5.177z"/><path fill="#1490DF" d="m26.6 14.346-.009.004-.001.001-6.503 3.704a.897.897 0 0 1-.876.054l2.265 3.037 4.951 1.078v.002a.9.9 0 0 0 .372-.729v-7.5a.4.4 0 0 1-.2.347v.002z"/><path fill="#000" fill-opacity=".047" d="M26.8 21.5v-.442l-5.99-3.413-.723.412a.897.897 0 0 1-.876.054l2.265 3.036 4.951 1.078v.003a.9.9 0 0 0 .372-.728z"/><path fill="#000" fill-opacity=".098" d="m26.769 21.73-6.566-3.741-.117.066a.897.897 0 0 1-.876.055l2.265 3.036 4.951 1.078v.002c.17-.12.29-.296.343-.496z"/><path fill="#28A8EA" d="M12.61 14.354v-.006h-.007l-.018-.013a.392.392 0 0 1-.186-.336v7.502c0 .493.406.899.899.899h12.6a.905.905 0 0 0 .33-.066.646.646 0 0 0 .174-.09l.024-.018-13.817-7.872z"/><path fill="#000" fill-opacity=".098" d="M18.4 19.2V9.4a.805.805 0 0 0-.8-.8h-3.982v4.474l-1.008.575-.003.001-.008.005A.399.399 0 0 0 12.4 14v6.002V20h5.2a.805.805 0 0 0 .8-.8z"/><path fill="#000" fill-opacity=".2" d="M17.8 19.8V10a.806.806 0 0 0-.8-.799h-3.382v3.873l-1.008.576h-.003l-.008.005A.4.4 0 0 0 12.4 14v6.601-.003H17a.806.806 0 0 0 .8-.799zm0-1.2V10a.806.806 0 0 0-.8-.799h-3.382v3.873l-1.008.576h-.003l-.008.005A.4.4 0 0 0 12.4 14v5.401-.003H17a.806.806 0 0 0 .8-.799zm-.6 0V10a.805.805 0 0 0-.8-.799h-2.782v3.873l-1.008.576h-.003l-.008.005A.4.4 0 0 0 12.4 14v5.401-.003h4a.805.805 0 0 0 .8-.799z"/><path fill="#0078D4" d="M8.4 9.2h7.999c.439 0 .8.362.8.8v8a.804.804 0 0 1-.8.799h-8a.803.803 0 0 1-.799-.8v-8c0-.438.361-.799.8-.799z"/><path fill="#fff" d="M9.92 12.48c.212-.452.556-.83.985-1.088A2.98 2.98 0 0 1 12.471 11a2.773 2.773 0 0 1 1.448.372c.414.246.747.607.96 1.039.23.477.346 1 .335 1.53a3.53 3.53 0 0 1-.346 1.599c-.216.448-.56.822-.987 1.076a2.88 2.88 0 0 1-1.503.382 2.842 2.842 0 0 1-1.48-.376 2.52 2.52 0 0 1-.971-1.041 3.276 3.276 0 0 1-.34-1.512 3.64 3.64 0 0 1 .333-1.588zm1.05 2.555c.113.287.305.535.554.717.253.177.557.269.866.26.329.014.653-.08.924-.268a1.56 1.56 0 0 0 .538-.718c.119-.32.176-.66.172-1a3.043 3.043 0 0 0-.162-1.011 1.603 1.603 0 0 0-.52-.745 1.428 1.428 0 0 0-.916-.282 1.496 1.496 0 0 0-.886.262 1.65 1.65 0 0 0-.566.723 2.872 2.872 0 0 0-.004 2.062z"/></g><defs><clipPath id="outlook_svg__a"><path fill="#fff" d="M7.6 4.4h19.2v19.2H7.6z"/></clipPath></defs></svg>