<svg xmlns="http://www.w3.org/2000/svg" width="84" height="22" fill="none"><path fill="#4C4C4C" fill-rule="evenodd" d="M25.38 15.778c-.307-.117-.507-.364-.507-.694a.734.734 0 0 1 1.027-.67c.52.235 1.074.376 1.747.376 1.228 0 1.807-.588 1.807-1.718v-.306c-.532.636-1.11 1.024-2.066 1.024-1.476 0-2.81-1.07-2.81-2.941v-.024c0-1.882 1.357-2.941 2.81-2.941.98 0 1.558.411 2.042.94v-.011c0-.482.401-.882.897-.882s.897.4.897.894v4.06c0 1.129-.271 1.952-.803 2.482-.59.588-1.5.847-2.726.847-.84 0-1.571-.141-2.315-.436Zm4.074-4.93v-.023c0-.859-.674-1.459-1.547-1.459-.874 0-1.535.6-1.535 1.46v.022c0 .871.661 1.46 1.535 1.46.873 0 1.547-.6 1.547-1.46Zm2.786-2.023c0-.494.401-.894.898-.894.495 0 .897.4.897.894v.282c.26-.611.684-1.176 1.216-1.176.555 0 .873.364.873.87 0 .47-.306.753-.672.836-.91.212-1.417.906-1.417 2.176v1.671a.895.895 0 0 1-.897.894.895.895 0 0 1-.898-.894v-4.66Zm3.672 3.671v-.024c0-1.376 1.05-2.012 2.55-2.012.638 0 1.098.106 1.547.259v-.106c0-.74-.46-1.153-1.358-1.153-.495 0-.897.071-1.24.177a.762.762 0 0 1-.26.047.73.73 0 0 1-.743-.73c0-.317.2-.588.484-.694.567-.212 1.18-.33 2.019-.33.98 0 1.688.26 2.137.707.472.47.685 1.165.685 2.012v2.87a.86.86 0 0 1-.874.86c-.52 0-.862-.365-.862-.742v-.012c-.437.483-1.039.8-1.913.8-1.192 0-2.172-.682-2.172-1.93Zm4.12-.412v-.318a2.792 2.792 0 0 0-1.145-.235c-.767 0-1.24.306-1.24.87v.024c0 .483.402.765.98.765.84 0 1.406-.459 1.406-1.106Zm2.658-3.259c0-.494.4-.894.897-.894.496 0 .897.4.897.894v.07c.413-.529.957-1.011 1.866-1.011.826 0 1.452.364 1.782 1 .555-.647 1.217-1 2.078-1 1.335 0 2.137.8 2.137 2.318v3.282a.896.896 0 0 1-.897.894.896.896 0 0 1-.898-.894V10.79c0-.847-.377-1.283-1.05-1.283s-1.086.436-1.086 1.283v2.694a.895.895 0 0 1-.898.894.896.896 0 0 1-.897-.894V10.79c0-.847-.378-1.283-1.05-1.283-.674 0-1.087.436-1.087 1.283v2.694a.896.896 0 0 1-.897.894.895.895 0 0 1-.897-.894v-4.66Zm10.626 0c0-.494.401-.894.897-.894s.898.4.898.894v.07c.413-.529.956-1.011 1.865-1.011.826 0 1.452.364 1.783 1 .555-.647 1.216-1 2.078-1 1.334 0 2.137.8 2.137 2.318v3.282a.895.895 0 0 1-.898.894.896.896 0 0 1-.897-.894V10.79c0-.847-.378-1.283-1.05-1.283-.674 0-1.087.436-1.087 1.283v2.694a.895.895 0 0 1-.897.894.895.895 0 0 1-.897-.894V10.79c0-.847-.378-1.283-1.051-1.283-.673 0-1.086.436-1.086 1.283v2.694a.896.896 0 0 1-.898.894.895.895 0 0 1-.897-.894v-4.66Zm10.249 3.671v-.024c0-1.376 1.05-2.012 2.55-2.012.637 0 1.098.106 1.546.259v-.106c0-.74-.46-1.153-1.358-1.153-.495 0-.897.071-1.239.177a.761.761 0 0 1-.26.047.73.73 0 0 1-.743-.73c0-.317.2-.588.483-.694.567-.212 1.181-.33 2.02-.33.98 0 1.688.26 2.136.707.473.47.685 1.165.685 2.012v2.87a.86.86 0 0 1-.873.86c-.52 0-.862-.365-.862-.742v-.012c-.437.483-1.04.8-1.913.8-1.193 0-2.172-.682-2.172-1.93Zm4.12-.412v-.318a2.792 2.792 0 0 0-1.145-.235c-.768 0-1.24.306-1.24.87v.024c0 .483.401.765.98.765.838 0 1.405-.459 1.405-1.106Zm2.657-3.259c0-.494.401-.894.897-.894s.898.4.898.894v.282c.26-.611.684-1.176 1.216-1.176.555 0 .873.364.873.87 0 .47-.307.753-.673.836-.909.212-1.416.906-1.416 2.176v1.671a.895.895 0 0 1-.898.894.896.896 0 0 1-.897-.894v-4.66Zm4.428-2.283c0-.494.4-.894.897-.894.496 0 .897.4.897.894v6.942a.896.896 0 0 1-.897.894.895.895 0 0 1-.897-.894V6.542Zm3.223 9.518c-.26-.093-.567-.305-.567-.74 0-.436.343-.73.709-.73a.85.85 0 0 1 .295.047c.153.047.248.071.378.071.318 0 .472-.059.637-.377l.06-.14-2.161-4.99a1.296 1.296 0 0 1-.095-.411c0-.506.39-.86.886-.86.448 0 .708.248.861.67l1.37 3.672 1.322-3.66c.142-.375.401-.681.862-.681.46 0 .85.353.85.823 0 .142-.047.341-.082.424L81.11 14.46c-.531 1.282-1.063 1.765-2.137 1.765-.402 0-.685-.059-.98-.165Z" clip-rule="evenodd"/><path fill="#15C39A" fill-rule="evenodd" d="M19.611 11.147c0 5.397-4.39 9.772-9.805 9.772C4.39 20.92 0 16.544 0 11.147s4.39-9.772 9.806-9.772c5.416 0 9.805 4.375 9.805 9.772Z" clip-rule="evenodd"/><path fill="#fff" fill-rule="evenodd" d="M11.087 13.257c.058.32.36.54.686.54h1.028l.595-.084c-.953 1.393-2.607 2.034-4.416 1.751-1.473-.23-2.738-1.223-3.271-2.61C4.497 9.706 6.804 6.701 9.81 6.701c1.567 0 2.94.914 3.728 2.018.21.3.624.41.926.201a.653.653 0 0 0 .198-.87 5.76 5.76 0 0 0-5.25-2.632c-2.867.191-5.187 2.53-5.352 5.388-.191 3.327 2.457 6.043 5.75 6.043 1.73 0 3.279-.75 4.334-1.965l-.125.697v.63c0 .324.22.625.54.683a.665.665 0 0 0 .79-.651v-3.771H11.74a.663.663 0 0 0-.654.785Z" clip-rule="evenodd"/></svg>