<svg xmlns="http://www.w3.org/2000/svg" width="30" height="16" fill="none"><path fill="#D7F7F0" d="M0 3a3 3 0 0 1 3-3h24a3 3 0 0 1 3 3v10a3 3 0 0 1-3 3H3a3 3 0 0 1-3-3V3Z"/><path fill="#0D8065" d="M5.193 12h4.446v-.781H6.073V8.747h3.282v-.781H6.073V5.509h3.509v-.782h-4.39V12Zm8.62 0c2.216 0 3.466-1.378 3.466-3.65 0-2.26-1.25-3.623-3.366-3.623h-2.344V12h2.244Zm-1.363-.781v-5.71h1.406c1.705 0 2.571 1.08 2.571 2.84 0 1.776-.866 2.87-2.67 2.87H12.45Zm11.48-6.492v4.745c0 1.065-.732 1.832-1.947 1.832-1.214 0-1.946-.767-1.946-1.832V4.727h-.88v4.816c0 1.491 1.115 2.585 2.826 2.585 1.712 0 2.827-1.094 2.827-2.585V4.727h-.88Z"/></svg>