<svg xmlns="http://www.w3.org/2000/svg" width="48" height="47" fill="none"><g clip-path="url(#login-reminder-key_svg__a)"><g clip-path="url(#login-reminder-key_svg__b)"><path fill="#fff" stroke="#6D758D" d="m22.038.953.003.003c2.67 2.427 8.605 6.761 16.82 6.439.998-.036 1.845.724 1.88 1.637v.001c.505 12.345-1.755 21.708-6.027 27.113l-.001.002c-2.808 3.584-7.592 7.151-10.823 9.406l-.002.001c-1.808 1.274-4.255 1.278-6.116-.003-3.268-2.249-8.011-5.864-10.868-9.452C2.678 30.74.374 21.376.924 9.035v-.003c.035-.919.842-1.673 1.88-1.637 8.215.322 14.15-4.012 16.82-6.439l.003-.003a1.766 1.766 0 0 1 2.41 0Z"/></g><mask id="login-reminder-key_svg__c" fill="#fff"><path fill-rule="evenodd" d="M20.833 47.012V-.022a2.268 2.268 0 0 0-1.55.608c-2.63 2.389-8.44 6.624-16.465 6.309C1.573 6.85.466 7.796.42 9.013c-.507 12.392 1.752 21.9 6.134 27.443 2.86 3.65 7.702 7.255 10.93 9.508a5.767 5.767 0 0 0 3.349 1.048Z" clip-rule="evenodd"/></mask><path fill="#B5DDE9" fill-rule="evenodd" d="M20.833 47.012V-.022a2.268 2.268 0 0 0-1.55.608c-2.63 2.389-8.44 6.624-16.465 6.309C1.573 6.85.466 7.796.42 9.013c-.507 12.392 1.752 21.9 6.134 27.443 2.86 3.65 7.702 7.255 10.93 9.508a5.767 5.767 0 0 0 3.349 1.048Z" clip-rule="evenodd"/><path fill="#6D758D" d="M20.833 47.012h1v.996l-.996.004-.004-1Zm0-47.034.002-1 .998.002v.998h-1Zm-1.55.608.679.734-.007.006-.672-.74ZM2.818 6.895l.036-1h.003l-.039 1ZM.42 9.013l1 .038-.001.003-1-.041Zm6.134 27.443.784-.62.003.003-.787.617Zm10.93 9.508.572-.82.004.003-.576.817Zm2.349 1.048V-.022h2v47.034h-2Zm-1.23-47.16a3.268 3.268 0 0 1 2.232-.874l-.004 2c-.31 0-.62.111-.87.342L18.604-.148ZM2.857 5.896c7.644.3 13.208-3.738 15.753-6.05l1.345 1.48c-2.713 2.465-8.771 6.899-17.176 6.568l.078-1.998ZM-.579 8.975c.069-1.823 1.694-3.142 3.433-3.08l-.072 2c-.751-.028-1.34.546-1.363 1.156l-1.998-.076Zm6.348 28.101C1.17 31.257-1.09 21.459-.579 8.972l1.998.082C.916 21.35 3.175 30.569 7.339 35.836l-1.57 1.24Zm11.143 9.708c-3.224-2.25-8.183-5.93-11.146-9.711l1.575-1.234c2.756 3.519 7.482 7.049 10.715 9.305l-1.144 1.64Zm3.925 1.228a6.767 6.767 0 0 1-3.929-1.23l1.152-1.635a4.766 4.766 0 0 0 2.77.865l.007 2Z" mask="url(#login-reminder-key_svg__c)"/><path fill="url(#login-reminder-key_svg__d)" fill-rule="evenodd" d="M43.833 21.738a7.19 7.19 0 0 1-5.08 6.873v8.756h2.167a2 2 0 0 1 2 2v2.56a2 2 0 0 1-2 2h-2.167v.745a2.108 2.108 0 0 1-4.215 0V28.61a7.188 7.188 0 1 1 9.295-6.873Zm-7.188 3.02a3.02 3.02 0 1 0 0-6.041 3.02 3.02 0 0 0 0 6.041Z" clip-rule="evenodd"/><path fill="#6D758D" d="m38.753 28.611-.146-.478-.354.108v.37h.5Zm0 8.756h-.5v.5h.5v-.5Zm0 6.56v-.5h-.5v.5h.5Zm-4.215-15.316h.5v-.37l-.354-.108-.146.478Zm4.362.478a7.69 7.69 0 0 0 5.433-7.351h-1a6.69 6.69 0 0 1-4.726 6.395l.293.956Zm.353 8.279V28.61h-1v8.756h1Zm1.667-.5h-2.167v1h2.167v-1Zm2.5 2.5a2.5 2.5 0 0 0-2.5-2.5v1a1.5 1.5 0 0 1 1.5 1.5h1Zm0 2.56v-2.56h-1v2.56h1Zm-2.5 2.5a2.5 2.5 0 0 0 2.5-2.5h-1a1.5 1.5 0 0 1-1.5 1.5v1Zm-2.167 0h2.167v-1h-2.167v1Zm.5.244v-.744h-1v.744h1Zm-2.608 2.608a2.608 2.608 0 0 0 2.608-2.608h-1c0 .888-.72 1.608-1.608 1.608v1Zm-2.607-2.608a2.608 2.608 0 0 0 2.608 2.608v-1c-.889 0-1.608-.72-1.608-1.608h-1Zm0-16.061v16.06h1v-16.06h-1Zm-5.08-6.873a7.69 7.69 0 0 0 5.433 7.351l.293-.956a6.69 6.69 0 0 1-4.726-6.395h-1Zm7.688-7.688a7.688 7.688 0 0 0-7.688 7.688h1a6.688 6.688 0 0 1 6.688-6.688v-1Zm7.687 7.688a7.688 7.688 0 0 0-7.688-7.688v1a6.688 6.688 0 0 1 6.688 6.688h1Zm-5.167 0a2.52 2.52 0 0 1-2.52 2.52v1a3.52 3.52 0 0 0 3.52-3.52h-1Zm-2.52-2.521a2.52 2.52 0 0 1 2.52 2.52h1a3.52 3.52 0 0 0-3.52-3.52v1Zm-2.521 2.52a2.52 2.52 0 0 1 2.52-2.52v-1a3.52 3.52 0 0 0-3.52 3.52h1Zm2.52 2.521a2.52 2.52 0 0 1-2.52-2.52h-1a3.52 3.52 0 0 0 3.52 3.52v-1Z"/></g><defs><clipPath id="login-reminder-key_svg__a"><path fill="#fff" d="M.333 0h47v47h-47z"/></clipPath><clipPath id="login-reminder-key_svg__b"><path fill="#fff" d="M.333 0h41v47h-41z"/></clipPath><linearGradient id="login-reminder-key_svg__d" x1="43.833" x2="25.349" y1="14.55" y2="21.971" gradientUnits="userSpaceOnUse"><stop offset=".035" stop-color="#B5DDE9"/><stop offset="1" stop-color="#D1CEF4"/></linearGradient></defs></svg>