<svg xmlns="http://www.w3.org/2000/svg" xmlns:xlink="http://www.w3.org/1999/xlink" width="32" height="32"><defs><circle id="dialect-canadian_svg__a" cx="8" cy="8" r="8"/></defs><g fill="none" fill-rule="evenodd" transform="translate(8 8)"><mask id="dialect-canadian_svg__b" fill="#fff"><use xlink:href="#dialect-canadian_svg__a"/></mask><use xlink:href="#dialect-canadian_svg__a" fill="#D8D8D8"/><path fill="#F0F2FC" fill-rule="nonzero" d="M1.006-2h14v20h-14z" mask="url(#dialect-canadian_svg__b)"/><path fill="red" fill-rule="nonzero" d="M-5-2h6.999v20H-5V-2zm19.001 0H21v20h-6.995L14-2zm-3.482 12.776a.289.289 0 0 0-.113.316l.19.628c-.848-.09-1.568-.223-2.396-.305-.07-.007-.182.111-.182.19l.062 2.335h-.388l.109-2.342c0-.076-.124-.183-.194-.183-.848.082-1.568.215-2.396.305l.213-.664a.29.29 0 0 0-.113-.305L2.915 8.958l.496-.215c.216-.072.158-.187.077-.463l-.364-1.234 1.394.273a.22.22 0 0 0 .248-.137l.178-.58 1.103 1.144c.166.183.484.183.387-.24l-.472-2.303.63.304c.179.09.357.104.458-.057l.87-1.51.86 1.52c.1.162.279.148.457.058l.631-.305-.472 2.317c-.085.424.232.424.387.24l1.103-1.143.178.58a.22.22 0 0 0 .248.137l1.394-.273-.364 1.234c-.081.276-.14.391.077.463l.496.215-2.396 1.793z" mask="url(#dialect-canadian_svg__b)"/></g></svg>