<svg xmlns="http://www.w3.org/2000/svg" width="32" height="32" fill="none"><path stroke="#6D758D" stroke-linecap="round" d="M15.826 15.75 21.5 10m0 0V7.375m0 2.625h2.605M23.5 5.5v2.625h2.605M11.36 24l1.486-2.625m0 0c.888.479 1.902.75 2.98.75a6.26 6.26 0 0 0 2.979-.75m-5.959 0A6.38 6.38 0 0 1 9.5 15.75c0-3.52 2.832-6.375 6.326-6.375.98 0 1.907.224 2.735.625m1.73 14-1.486-2.625m0 0a6.38 6.38 0 0 0 3.346-5.625c0-.985-.221-1.917-.617-2.75m-5.034-.556a3.338 3.338 0 0 0-.674-.069c-1.85 0-3.35 1.511-3.35 3.375s1.5 3.375 3.35 3.375 3.348-1.511 3.348-3.375c0-.233-.023-.46-.068-.68"/></svg>