<svg xmlns="http://www.w3.org/2000/svg" width="106" height="26" fill="none"><path fill="#454543" fill-rule="evenodd" d="M32.935 19.807c-.386-.148-.639-.46-.639-.877a.926.926 0 0 1 1.293-.847 5.144 5.144 0 0 0 2.199.475c1.544 0 2.273-.742 2.273-2.168v-.386c-.669.802-1.397 1.291-2.6 1.291-1.858 0-3.537-1.351-3.537-3.714v-.029c0-2.377 1.708-3.714 3.536-3.714 1.233 0 1.962.52 2.57 1.189v-.016c0-.609.506-1.114 1.13-1.114.623 0 1.128.505 1.128 1.13v5.125c0 1.426-.34 2.466-1.01 3.135-.742.742-1.886 1.07-3.431 1.07a7.63 7.63 0 0 1-2.912-.55zm5.126-6.226v-.029c0-1.084-.847-1.842-1.947-1.842-1.099 0-1.93.758-1.93 1.842v.03c0 1.099.831 1.842 1.93 1.842 1.1 0 1.947-.758 1.947-1.843zm3.506-2.554a1.129 1.129 0 1 1 2.258 0v.356c.328-.772.862-1.486 1.531-1.486.698 0 1.099.46 1.099 1.1 0 .594-.386.95-.846 1.054-1.145.268-1.784 1.144-1.784 2.749v2.11a1.129 1.129 0 1 1-2.258 0v-5.883zm4.621 4.635v-.03c0-1.738 1.323-2.541 3.21-2.541.802 0 1.382.134 1.946.327v-.134c0-.936-.58-1.455-1.71-1.455a5.22 5.22 0 0 0-1.56.222.953.953 0 0 1-.325.06.92.92 0 0 1-.937-.922c0-.4.253-.742.61-.876.713-.268 1.485-.416 2.54-.416 1.233 0 2.124.327 2.69.892.593.594.86 1.47.86 2.54v3.625c0 .61-.49 1.085-1.099 1.085-.653 0-1.085-.46-1.085-.936v-.016c-.548.61-1.306 1.01-2.407 1.01-1.5 0-2.733-.86-2.733-2.435zm5.186-.52v-.401a3.49 3.49 0 0 0-1.442-.297c-.966 0-1.56.386-1.56 1.099v.029c0 .61.505.966 1.233.966 1.056 0 1.769-.579 1.769-1.397zm3.342-4.115a1.129 1.129 0 1 1 2.259 0v.089c.52-.669 1.204-1.278 2.348-1.278 1.039 0 1.827.46 2.243 1.262.699-.817 1.53-1.262 2.615-1.262 1.679 0 2.689 1.01 2.689 2.927v4.144a1.129 1.129 0 1 1-2.259 0v-3.401c0-1.07-.475-1.62-1.322-1.62-.846 0-1.366.55-1.366 1.62v3.401a1.129 1.129 0 1 1-2.259 0v-3.401c0-1.07-.475-1.62-1.323-1.62-.846 0-1.366.55-1.366 1.62v3.401a1.129 1.129 0 1 1-2.259 0v-5.882zm13.374 0a1.129 1.129 0 1 1 2.258 0v.089c.519-.669 1.203-1.278 2.347-1.278 1.04 0 1.828.46 2.243 1.262.699-.817 1.53-1.262 2.615-1.262 1.679 0 2.69 1.01 2.69 2.927v4.144a1.13 1.13 0 0 1-2.259 0v-3.401c0-1.07-.476-1.62-1.323-1.62-.846 0-1.366.55-1.366 1.62v3.401a1.129 1.129 0 1 1-2.259 0v-3.401c0-1.07-.475-1.62-1.322-1.62-.847 0-1.366.55-1.366 1.62v3.401a1.129 1.129 0 1 1-2.259 0v-5.882zm12.896 4.635v-.03c0-1.738 1.322-2.541 3.21-2.541a5.67 5.67 0 0 1 1.945.327v-.134c0-.936-.578-1.455-1.709-1.455-.623 0-1.128.089-1.56.222a.948.948 0 0 1-.326.06.92.92 0 0 1-.936-.922c0-.4.253-.742.61-.876.712-.268 1.485-.416 2.54-.416 1.233 0 2.124.327 2.689.892.594.594.862 1.47.862 2.54v3.625c0 .61-.49 1.085-1.1 1.085-.654 0-1.084-.46-1.084-.936v-.016c-.55.61-1.308 1.01-2.407 1.01-1.5 0-2.734-.86-2.734-2.435zm5.185-.52v-.401a3.488 3.488 0 0 0-1.44-.297c-.966 0-1.562.386-1.562 1.099v.029c0 .61.505.966 1.234.966 1.055 0 1.768-.579 1.768-1.397zm3.344-4.115a1.129 1.129 0 1 1 2.257 0v.356c.328-.772.863-1.486 1.531-1.486.698 0 1.1.46 1.1 1.1 0 .594-.387.95-.847 1.054-1.144.268-1.784 1.144-1.784 2.749v2.11a1.129 1.129 0 1 1-2.257 0v-5.883zm5.571-2.883a1.129 1.129 0 1 1 2.259 0v8.765a1.129 1.129 0 1 1-2.259 0V8.144zm4.057 12.02c-.327-.12-.713-.387-.713-.937a.9.9 0 0 1 .89-.921c.179 0 .282.03.372.06.193.059.312.089.476.089.4 0 .594-.075.802-.475l.074-.18-2.718-6.298a1.637 1.637 0 0 1-.119-.52c0-.639.49-1.085 1.114-1.085.564 0 .891.312 1.085.847l1.723 4.635 1.664-4.62c.179-.476.505-.862 1.084-.862.58 0 1.07.446 1.07 1.04 0 .179-.059.431-.104.535l-2.778 6.671c-.669 1.62-1.337 2.229-2.689 2.229-.505 0-.862-.075-1.233-.208z" clip-rule="evenodd"/><path fill="#15C39A" fill-rule="evenodd" d="M13.336 25.393c6.815 0 12.34-5.524 12.34-12.338 0-6.816-5.525-12.34-12.34-12.34C6.521.714.996 6.238.996 13.054c0 6.814 5.525 12.338 12.34 12.338zm1.612-9.674a.838.838 0 0 1 .823-.993h4.539v4.762a.837.837 0 0 1-.992.823c-.403-.074-.68-.454-.68-.863v-.796l.156-.88a7.174 7.174 0 0 1-5.453 2.482c-4.144 0-7.477-3.43-7.235-7.63.207-3.61 3.127-6.563 6.734-6.805a7.241 7.241 0 0 1 6.607 3.325h-.005a.825.825 0 0 1-.245 1.098.84.84 0 0 1-1.163-.225l-.001-.03c-.992-1.394-2.72-2.547-4.692-2.547-3.783 0-6.686 3.795-5.162 7.77.672 1.751 2.264 3.005 4.117 3.296 2.277.357 4.359-.453 5.558-2.213l-.75.106h-1.293c-.41 0-.79-.276-.863-.68z" clip-rule="evenodd"/></svg>