<svg xmlns="http://www.w3.org/2000/svg" width="32" height="32" fill="none"><path fill="#15C39A" fill-rule="evenodd" d="M27 16c0 6.075-4.925 11-11 11S5 22.075 5 16 9.925 5 16 5s11 4.925 11 11Z" clip-rule="evenodd"/><path fill="#fff" fill-rule="evenodd" d="M17.438 18.375c.065.36.403.607.77.607h1.152l.668-.094c-1.069 1.568-2.925 2.29-4.954 1.972-1.652-.26-3.071-1.377-3.67-2.938-1.36-3.544 1.229-6.927 4.6-6.927 1.758 0 3.3 1.056 4.184 2.298.235.338.7.435 1.038.2a.737.737 0 0 0 .222-.979 6.454 6.454 0 0 0-5.89-2.963c-3.216.215-5.818 2.847-6.003 6.065-.215 3.745 2.755 6.803 6.45 6.803 1.94 0 3.678-.845 4.862-2.213l-.14.785v.708c0 .366.246.705.606.77a.746.746 0 0 0 .884-.733V17.49H18.17a.746.746 0 0 0-.732.884Z" clip-rule="evenodd"/></svg>