<svg xmlns="http://www.w3.org/2000/svg" width="22" height="22" fill="none"><path fill="#15C39A" fill-rule="evenodd" d="M22 11c0 6.075-4.925 11-11 11S0 17.075 0 11 4.925 0 11 0s11 4.925 11 11Z" clip-rule="evenodd"/><path fill="#FC0" d="M11 22c6.075 0 11-4.925 11-11H0c0 6.075 4.925 11 11 11Z"/><path fill="#06C" d="M11 0C4.925 0 0 4.925 0 11h22c0-6.075-4.925-11-11-11Z"/><path fill="#06C" fill-opacity=".15" fill-rule="evenodd" d="M12.438 14.08c.065.36.403.607.77.607h1.152l.668-.094c-1.07 1.568-2.925 2.29-4.955 1.971-1.651-.26-3.07-1.377-3.67-2.938C5.046 10.083 7.634 6.7 11.006 6.7c1.757 0 3.3 1.055 4.183 2.298.235.338.7.435 1.038.2a.737.737 0 0 0 .222-.979 6.454 6.454 0 0 0-5.89-2.964c-3.216.216-5.819 2.848-6.004 6.066-.214 3.745 2.756 6.802 6.45 6.802a6.398 6.398 0 0 0 4.863-2.212l-.14.784v.709c0 .365.246.704.606.77a.746.746 0 0 0 .884-.734v-4.245H13.17a.746.746 0 0 0-.732.885Z" clip-rule="evenodd"/><path fill="#fff" fill-rule="evenodd" d="M12.438 13.375c.065.36.403.607.77.607h1.152l.668-.094c-1.07 1.568-2.925 2.29-4.955 1.972-1.651-.26-3.07-1.377-3.67-2.938-1.358-3.544 1.23-6.927 4.602-6.927 1.757 0 3.3 1.055 4.183 2.298.235.338.7.435 1.038.2a.737.737 0 0 0 .222-.979 6.454 6.454 0 0 0-5.89-2.963c-3.216.215-5.819 2.847-6.004 6.065-.214 3.745 2.756 6.803 6.45 6.803a6.395 6.395 0 0 0 4.863-2.213l-.14.785v.708c0 .366.246.705.606.77a.746.746 0 0 0 .884-.733V12.49H13.17a.746.746 0 0 0-.732.884Z" clip-rule="evenodd"/></svg>