<svg xmlns="http://www.w3.org/2000/svg" width="32" height="32" fill="none"><path fill="#6D758D" d="M15.5 9.5V9a.5.5 0 0 0-.5.5h.5zm2 0h.5a.5.5 0 0 0-.5-.5v.5zm3.333 1.333.354-.353a.5.5 0 0 0-.707 0l.353.353zm1.334 1.334.353.353a.5.5 0 0 0 0-.707l-.353.354zM23.5 15.5h.5a.5.5 0 0 0-.5-.5v.5zm0 2v.5a.5.5 0 0 0 .5-.5h-.5zm-1.333 3.333.353.354a.5.5 0 0 0 0-.707l-.353.353zm-1.334 1.334-.353.353a.5.5 0 0 0 .707 0l-.354-.353zM17.5 23.5v.5a.5.5 0 0 0 .5-.5h-.5zm-2 0H15a.5.5 0 0 0 .5.5v-.5zm-3.333-1.333-.354.353a.5.5 0 0 0 .707 0l-.353-.353zm-1.334-1.334-.353-.353a.5.5 0 0 0 0 .707l.353-.354zM9.5 17.5H9a.5.5 0 0 0 .5.5v-.5zm0-2V15a.5.5 0 0 0-.5.5h.5zm1.333-3.333-.353-.354a.5.5 0 0 0 0 .707l.353-.353zm1.334-1.334.353-.353a.5.5 0 0 0-.707 0l.354.353zm.602.602-.354.354.354-.354zm-1.334 1.334-.353.353.353-.353zm10.13 7.462-.354.354.354-.354zm0-7.462-.354-.354.354.354zM15.5 10h2V9h-2v1zm1.5-.5v.804h1V9.5h-1zm3.585 2.289.602-.602-.707-.707-.602.602.707.707zm-.105-.602 1.333 1.333.707-.707-1.333-1.333-.707.707zm1.333.626-.602.602.707.707.602-.602-.707-.707zM22.696 16h.804v-1h-.804v1zm.304-.5v2h1v-2h-1zm.5 1.5h-.804v1h.804v-1zm-2.289 3.585.602.602.707-.707-.602-.602-.707.707zm.602-.105-1.333 1.333.707.707 1.333-1.333-.707-.707zm-.626 1.333-.602-.602-.707.707.602.602.707-.707zM17 22.696v.804h1v-.804h-1zm.5.304h-2v1h2v-1zm-1.5.5v-.804h-1v.804h1zm-3.585-2.289-.602.602.707.707.602-.602-.707-.707zm.105.602-1.333-1.333-.707.707 1.333 1.333.707-.707zm-1.333-.626.602-.602-.707-.707-.602.602.707.707zM10.304 17H9.5v1h.804v-1zm-.304.5v-2H9v2h1zM9.5 16h.804v-1H9.5v1zm2.289-3.585-.602-.602-.707.707.602.602.707-.707zm-.602.105 1.333-1.333-.707-.707-1.333 1.333.707.707zm.626-1.333.602.602.707-.707-.602-.602-.707.707zM16 10.304V9.5h-1v.804h1zm3.667 6.196a3.167 3.167 0 0 0-3.167-3.167v1c1.197 0 2.167.97 2.167 2.167h1zM16.5 19.667a3.167 3.167 0 0 0 3.167-3.167h-1c0 1.197-.97 2.167-2.167 2.167v1zm-4.085-7.878c1.323 1.323 3.585.386 3.585-1.485h-1c0 .98-1.185 1.47-1.878.778l-.707.707zM10.304 16c1.87 0 2.808-2.262 1.485-3.585l-.707.707c.693.693.202 1.878-.778 1.878v1zm1.485 4.585c1.323-1.323.386-3.585-1.485-3.585v1c.98 0 1.47 1.185.778 1.878l.707.707zM17 10.304c0 1.87 2.262 2.808 3.585 1.485l-.707-.707c-.693.693-1.878.202-1.878-.778h-1zM13.333 16.5a3.167 3.167 0 0 0 3.167 3.167v-1a2.167 2.167 0 0 1-2.167-2.167h-1zM16 22.696c0-1.87-2.262-2.808-3.585-1.485l.707.707c.693-.693 1.878-.202 1.878.778h1zm4.585-1.485C19.262 19.888 17 20.825 17 22.696h1c0-.98 1.185-1.47 1.878-.778l.707-.707zM22.696 17c-1.87 0-2.808 2.262-1.485 3.585l.707-.707c-.693-.693-.202-1.878.778-1.878v-1zm-1.485-4.585C19.888 13.738 20.825 16 22.696 16v-1c-.98 0-1.47-1.185-.778-1.878l-.707-.707zM14.333 16.5c0-1.197.97-2.167 2.167-2.167v-1a3.167 3.167 0 0 0-3.167 3.167h1z"/></svg>