<svg xmlns="http://www.w3.org/2000/svg" width="166" height="111" fill="none"><path fill="#638EEB" d="M18.239 100.617h129.522c9.76 0 17.666-7.92 17.666-17.698v-65.22C165.427 7.92 157.521 0 147.761 0H18.239C8.479 0 .573 7.92.573 17.698v65.319c0 9.68 7.906 17.6 17.666 17.6Z"/><path fill="#1C1E33" d="M115.775 84.092c14.396 8.696 27.344 17.563 31.689 20.12 4.344 2.558 3.492 6.139-6.9 6.139h-24.789v-26.26Zm-62.951 0c-14.397 8.696-27.345 17.563-31.69 20.12-4.343 2.558-3.492 6.139 6.9 6.139h24.79v-26.26Z"/><path fill="#fff" stroke="#1C1E33" stroke-miterlimit="10" d="M136.73 110.351H32.55a11.057 11.057 0 0 1-11.074-11.083V48.967c0-6.139 4.94-11.084 11.074-11.084h104.18a11.056 11.056 0 0 1 11.074 11.084v50.3c0 6.139-4.94 11.084-11.074 11.084Z"/><path fill="#AFEEE0" stroke="#1C1E33" stroke-miterlimit="10" d="M147.805 60.732c-7.923 15.26-23.511 32.482-32.2 37.939-12.352 7.673-25.64-5.627-36.374-2.9-10.052 2.644-24.533 6.736-34.33 5.457-7.155-.852-14.736 3.155-20.784 5.201 2.044 2.387 5.026 3.922 8.433 3.922h104.181a11.057 11.057 0 0 0 11.074-11.084V60.732Z"/><path fill="#1C1E33" d="M32.635 37.798a11.82 11.82 0 0 0-3.919.682v7.759a8.765 8.765 0 0 0 8.774 8.78h22.49a8.765 8.765 0 0 0 8.774-8.78v-8.44H32.635Z"/><path fill="#fff" stroke="#1C1E33" stroke-miterlimit="10" d="M41.068 51.524h22.915c4.685 0 8.518-3.836 8.518-8.525V14.523c0-4.689-3.833-8.525-8.518-8.525H41.068c-4.685 0-8.518 3.836-8.518 8.525V43a8.493 8.493 0 0 0 8.518 8.525Z"/><path fill="#B9CDFF" stroke="#1C1E33" stroke-miterlimit="10" d="M52.483 40.697c7.386 0 13.374-5.993 13.374-13.385 0-7.393-5.988-13.386-13.374-13.386S39.109 19.92 39.109 27.313c0 7.392 5.988 13.385 13.374 13.385Z"/><path fill="#fff" stroke="#1C1E33" stroke-miterlimit="10" d="M39.365 29.699c-1.193-6.565 2.64-12.789 8.689-14.92 2.214.511 5.11.511 9.625 10.316a312.082 312.082 0 0 0 1.874 4.945 22.322 22.322 0 0 1-2.981.597c.596 2.728 2.215 7.246-.596 9.719-.426.085-.767.17-1.108.17-7.326 1.28-14.226-3.58-15.503-10.827Z"/><path fill="#1C1E33" d="M30.335 49.904h-8.86v45.527h8.86a8.765 8.765 0 0 0 8.774-8.781V58.686a8.765 8.765 0 0 0-8.774-8.782Z"/><path fill="#F2F3FA" stroke="#1C1E33" stroke-miterlimit="10" d="M10.828 91.765h22.914c4.686 0 8.519-3.837 8.519-8.526V54.85c0-4.689-3.834-8.525-8.519-8.525H10.828c-4.685 0-8.519 3.836-8.519 8.525v28.476c0 4.689 3.834 8.44 8.519 8.44Z"/><path fill="#AFE4F4" stroke="#1C1E33" stroke-miterlimit="10" d="M22.328 81.023c7.386 0 13.374-5.993 13.374-13.385 0-7.393-5.988-13.385-13.374-13.385S8.954 60.245 8.954 67.638c0 7.392 5.988 13.385 13.374 13.385Z"/><path fill="#fff" stroke="#1C1E33" stroke-miterlimit="10" d="M9.976 72.924c-2.641-6.053-.341-13.044 5.026-16.54 2.3 0 5.11-.682 11.67 7.758a593.105 593.105 0 0 1 2.981 4.434 22.261 22.261 0 0 1-2.726 1.279c1.193 2.557 3.749 6.564 1.619 9.633L27.524 80c-6.73 2.899-14.567-.256-17.548-7.076Z"/><path fill="#1C1E33" d="M23.69 58.856c-2.555-3.325-4.43-3.495-5.963-3.836-.34.17-.681.256-1.107.426h-.085l-1.022.512h-.086c-.34.17-.596.426-.937.596-1.533 1.109-2.81 2.473-3.748 4.093 0 .085-.085.085-.085.17a2.57 2.57 0 0 0-.34.682c-.086.17-.171.256-.171.427-.085.17-.17.426-.256.682-.085.17-.17.34-.17.511-.085.256-.17.426-.255.682-.086.17-.086.427-.17.597-.086.17-.086.426-.171.597-.085.256-.085.426-.085.682 0 .17-.086.34-.086.597 0 .255 0 .511-.085.767v1.79c0 .427.085.853.17 1.28a14.52 14.52 0 0 0 1.278 3.836c.17.426.426.767.682 1.108 1.192 1.876 2.81 3.325 4.685 4.433.17-1.96-.767-4.518-1.618-6.564-1.364-3.325 1.618-3.752 3.151-2.302 1.534 1.364 1.108-.427.937-3.496-.085-4.518 3.408-6.906 5.537-8.27Zm20.53-26.77c-1.533-2.899 1.363-4.945 2.215-3.154.852 1.79 2.47 2.216 2.044.767-.596-2.899-1.874-6.565 2.64-7.503 4.516-.852 4.771-4.86 3.664-8.014-1.022-.17-2.045-.255-3.152-.17-7.411.426-13.033 6.82-12.522 14.237.255 4.178 2.385 7.759 5.537 10.06 1.192-1.449.596-4.262-.426-6.223Z"/><path stroke="#C6CBDE" stroke-miterlimit="10" d="M47.287 82.813h79.221M71.905 52.206h71.384M47.287 67.211H136.9"/><path fill="#B9CDFF" stroke="#1C1E33" stroke-miterlimit="10" d="M143.29 70.025a1.278 1.278 0 1 0-.002-2.556 1.278 1.278 0 0 0 .002 2.556Z"/></svg>