<svg xmlns="http://www.w3.org/2000/svg" width="18" height="18" fill="none"><path fill="#fff" fill-rule="evenodd" stroke="#9FA6BF" d="M17 9A8 8 0 1 1 1 9a8 8 0 0 1 16 0z" clip-rule="evenodd"/><path fill="#9FA6BF" fill-rule="evenodd" d="M10.046 10.727c.047.262.293.442.56.442h.838l.486-.069c-.778 1.14-2.128 1.666-3.604 1.434a3.428 3.428 0 0 1-2.669-2.136C4.67 7.82 6.551 5.36 9.004 5.36c1.278 0 2.4.768 3.042 1.671.17.246.509.317.755.146a.536.536 0 0 0 .161-.712A4.694 4.694 0 0 0 8.68 4.309c-2.34.157-4.232 2.071-4.367 4.412-.156 2.723 2.005 4.947 4.692 4.947a4.65 4.65 0 0 0 3.536-1.609l-.102.57v.516c0 .266.179.512.44.56a.543.543 0 0 0 .644-.534v-3.087h-2.944c-.332 0-.595.3-.532.643z" clip-rule="evenodd"/></svg>