<svg xmlns="http://www.w3.org/2000/svg" width="24" height="24" fill="none"><path fill="#6D758D" d="M9 19.318a.5.5 0 0 0 0-1v1Zm-4-1a.5.5 0 1 0 0 1v-1Zm6.899-.58a.5.5 0 1 0-.707.707l.707-.708ZM14.455 21l-.354.354.353.353.354-.353-.354-.354Zm6.899-6.192a.5.5 0 0 0-.708-.707l.708.707Zm-5.284 1.194a.5.5 0 1 0 .406-.913l-.406.913Zm-1.076-1.025-.203.457.203-.457Zm-.095-.042-.21.453.21-.453ZM13 12.013l-.5.007.5-.007Zm-4.86 3.054-.224-.448.223.448Zm.268-.138-.243-.437.243.437Zm1.68-2.718.5.021-.5-.021Zm-5.085 6.306-.5-.022.5.021Zm1.948-2.856-.223-.448.223.448Zm-.268.137.243.437-.243-.437ZM9 18.318H5v1h4v-1Zm-1.825-2.21 1.188-.594-.447-.895-1.188.594.447.895Zm4.017 2.337 2.909 2.909.707-.708-2.909-2.909-.707.708Zm3.616 2.909 6.546-6.546-.708-.707-6.545 6.545.707.708Zm1.668-6.265-1.28-.569-.405.914 1.279.568.406-.913Zm-7.34-5.725V7.909h-1v1.455h1Zm4.819-1.455v1.455h1V7.909h-1Zm0 1.455a2.41 2.41 0 0 1-2.41 2.409v1a3.41 3.41 0 0 0 3.41-3.41h-1ZM11.544 5.5a2.409 2.409 0 0 1 2.41 2.41h1a3.41 3.41 0 0 0-3.41-3.41v1ZM9.137 7.91a2.41 2.41 0 0 1 2.41-2.41v-1a3.41 3.41 0 0 0-3.41 3.41h1Zm-1 1.454a3.41 3.41 0 0 0 3.41 3.409v-1a2.41 2.41 0 0 1-2.41-2.41h-1Zm7.06 5.156a9.379 9.379 0 0 1-.087-.04l-.42.908.102.046.406-.914ZM12.5 11.91v.11l1-.015v-.096h-1Zm2.609 2.57a2.773 2.773 0 0 1-1.609-2.475l-1 .015a3.773 3.773 0 0 0 2.19 3.368l.419-.907Zm-6.746 1.034c.133-.067.214-.107.288-.148l-.486-.874c-.05.028-.108.057-.25.127l.448.895Zm1.228-3.605c0 .158 0 .222-.003.28l1 .043c.003-.084.003-.174.003-.323h-1Zm-.94 3.457a3.773 3.773 0 0 0 1.936-3.133l-.999-.044a2.773 2.773 0 0 1-1.423 2.303l.486.874ZM5.5 18.818c0-.158 0-.222.003-.28l-1-.043c-.003.084-.003.174-.003.323h1Zm1.228-3.605c-.133.067-.214.107-.288.148l.486.874a6.96 6.96 0 0 1 .25-.127l-.448-.895Zm-1.225 3.325a2.773 2.773 0 0 1 1.423-2.303l-.486-.874a3.773 3.773 0 0 0-1.936 3.134l.999.043Z"/></svg>