<svg xmlns="http://www.w3.org/2000/svg" width="32" height="32" fill="none"><path fill="#15C39A" fill-rule="evenodd" d="M29 16c0 7.18-5.82 13-13 13S3 23.18 3 16 8.82 3 16 3s13 5.82 13 13Z" clip-rule="evenodd"/><path fill="#fff" fill-rule="evenodd" d="M17.7 18.807c.076.426.476.717.909.717h1.362l.79-.11c-1.264 1.853-3.458 2.706-5.856 2.33-1.952-.307-3.63-1.628-4.337-3.473-1.606-4.188 1.452-8.186 5.438-8.186 2.077 0 3.9 1.247 4.944 2.716.277.4.826.514 1.226.237a.87.87 0 0 0 .262-1.157 7.628 7.628 0 0 0-6.96-3.503c-3.8.255-6.877 3.365-7.095 7.169-.254 4.425 3.256 8.039 7.623 8.039a7.558 7.558 0 0 0 5.746-2.615l-.166.927v.838c0 .431.291.832.717.91a.882.882 0 0 0 1.045-.867v-5.017h-4.783a.881.881 0 0 0-.866 1.045Z" clip-rule="evenodd"/></svg>