<svg xmlns="http://www.w3.org/2000/svg" width="20" height="20" fill="none"><path fill="url(#emoji-smiling_svg__a)" d="M10 19.375a9.375 9.375 0 1 0 0-18.75 9.375 9.375 0 1 0 0 18.75Z"/><path fill="url(#emoji-smiling_svg__b)" d="M4.434 13.204a3.125 3.125 0 1 0 0-6.25 3.125 3.125 0 0 0 0 6.25Z"/><path fill="url(#emoji-smiling_svg__c)" d="M15.566 13.125a3.125 3.125 0 1 0 0-6.25 3.125 3.125 0 0 0 0 6.25Z"/><path fill="#302C3B" d="M11.32 7.751c1.18-1.314 3.014-1.315 4.195 0 .18.201.288-.016.23-.187-1.147-3.393-3.51-3.393-4.656 0-.058.171.05.388.231.187Zm-6.834 0c1.18-1.314 3.014-1.315 4.194 0 .18.201.29-.016.23-.187-1.146-3.393-3.508-3.393-4.655 0-.057.171.05.388.23.187Zm9.427 3.622c-2.384 1.715-5.445 1.715-7.828 0-.337-.243-.54.02-.43.225 1.829 3.498 6.86 3.497 8.69 0 .108-.206-.093-.468-.432-.226Z"/><defs><radialGradient id="emoji-smiling_svg__b" cx="0" cy="0" r="1" gradientTransform="translate(4.434 10.08) scale(3.125)" gradientUnits="userSpaceOnUse"><stop stop-color="#F18D84"/><stop offset=".251" stop-color="#F29180" stop-opacity=".749"/><stop offset=".512" stop-color="#F49E73" stop-opacity=".488"/><stop offset=".775" stop-color="#F8B25F" stop-opacity=".225"/><stop offset="1" stop-color="#FDCA47" stop-opacity="0"/></radialGradient><radialGradient id="emoji-smiling_svg__c" cx="0" cy="0" r="1" gradientTransform="translate(15.566 10) scale(3.125)" gradientUnits="userSpaceOnUse"><stop stop-color="#F18D84"/><stop offset=".251" stop-color="#F29180" stop-opacity=".749"/><stop offset=".512" stop-color="#F49E73" stop-opacity=".488"/><stop offset=".775" stop-color="#F8B25F" stop-opacity=".225"/><stop offset="1" stop-color="#FDCA47" stop-opacity="0"/></radialGradient><linearGradient id="emoji-smiling_svg__a" x1="10" x2="10" y1="19.375" y2=".625" gradientUnits="userSpaceOnUse"><stop stop-color="#FFA027"/><stop offset=".272" stop-color="#FFC151"/><stop offset=".763" stop-color="#FFC93F"/><stop offset="1" stop-color="#FFE261"/></linearGradient></defs></svg>