<svg xmlns="http://www.w3.org/2000/svg" width="32" height="32" fill="none"><path fill="#6D758D" d="M10.667 20.343h.5v-.5h-.5v.5Zm3.555 0v-.5h-.166l-.133.1.3.4ZM10.667 23h-.5v.998l.799-.598-.3-.4ZM22 9.5H10v1h12v-1ZM7.5 12v6.343h1V12h-1Zm17 6.343V12h-1v6.343h1Zm-14.5 2.5h.667v-1H10v1Zm4.222 0H22v-1h-7.778v1Zm-4.055-.5V23h1v-2.657h-1Zm.799 3.058 3.556-2.658-.6-.8-3.555 2.656.599.802ZM23.5 18.343a1.5 1.5 0 0 1-1.5 1.5v1a2.5 2.5 0 0 0 2.5-2.5h-1Zm-16 0a2.5 2.5 0 0 0 2.5 2.5v-1a1.5 1.5 0 0 1-1.5-1.5h-1ZM10 9.5A2.5 2.5 0 0 0 7.5 12h1a1.5 1.5 0 0 1 1.5-1.5v-1Zm12 1a1.5 1.5 0 0 1 1.5 1.5h1A2.5 2.5 0 0 0 22 9.5v1ZM11 14h10v-1H11v1Zm0 3h10v-1H11v1Z"/></svg>