<svg xmlns="http://www.w3.org/2000/svg" width="32" height="32" fill="none"><rect width="26.4" height="26.4" y="5.6" fill="#C6CBDE" rx="5"/><rect width="26.4" height="26.4" x="4.8" y=".8" fill="#fff" stroke="#4D536E" rx="5"/><g clip-path="url(#gdocs_svg__a)"><path fill="#4285F4" d="M19.9 4h-8.075c-.76 0-1.425.636-1.425 1.364v17.273c0 .727.665 1.364 1.425 1.364h12.35c.76 0 1.426-.636 1.426-1.364V9.454l-3.325-2.272L19.9 4z"/><path fill="#F1F1F1" d="M14.2 18.546h7.6v-.91h-7.6v.91zm0 1.818h5.7v-.909h-5.7v.909zm0-6.364v.909h7.6V14h-7.6zm0 2.727h7.6v-.909h-7.6v.91z"/><path fill="#A1C2FA" d="M19.9 4v4.091c0 .727.665 1.363 1.425 1.363H25.6L19.9 4z"/></g><defs><clipPath id="gdocs_svg__a"><path fill="#fff" d="M10.4 4h15.2v20H10.4z"/></clipPath></defs></svg>