<svg xmlns="http://www.w3.org/2000/svg" width="68" height="69" fill="none"><path stroke="#8383EF" stroke-miterlimit="10" stroke-width=".75" d="M12.965 22.107c3.688-6.33 10.104-10.96 17.954-11.942 4.466-.621 8.752.094 12.604 1.714.68.292 1.411.648 2.027.994.616.346 1.284.755 1.9 1.102a23.872 23.872 0 0 1 6.326 6.12c.467.686.987 1.435 1.391 2.175.35.676.701 1.352.998 1.965.872 2.073 1.552 4.305 1.808 6.678.831 6.42-1.022 12.61-4.636 17.478-.806 1.107-1.718 2.088-2.683 3.006-1.484 1.461-3.18 2.67-4.92 3.698-2.662 1.48-5.578 2.526-8.793 2.96-5.77.745-11.235-.6-15.809-3.338a18.989 18.989 0 0 1-3.523-2.65"/><path stroke="#00B18F" stroke-miterlimit="10" stroke-width=".197" d="M31.985 18.544c.297-.034.594-.067.827-.048"/><path stroke="#00B18F" stroke-dasharray="0.39 0.39" stroke-miterlimit="10" stroke-width=".197" d="M34.467 18.401c1.995.051 3.841.443 5.592 1.238"/><path stroke="#00B18F" stroke-dasharray="2 2" stroke-miterlimit="10" stroke-width=".75" d="M40.791 19.995c.223.136.51.22.733.356.392.21.838.482 1.23.692 1.55 1.072 3.015 2.43 4.109 3.992.308.497.68.94.87 1.426.255.433.457.803.648 1.29a16.01 16.01 0 0 1 1.202 4.274c.565 4.163-.621 8.178-2.964 11.33-.53.66-1.124 1.374-1.707 1.972A16.193 16.193 0 0 1 41.7 47.7c-1.24.718-2.64 1.246-4.083 1.594"/><path stroke="#1CA6D0" stroke-miterlimit="10" stroke-width=".197" d="M34.82 41.18a7.095 7.095 0 0 1-4.615-.978c-.392-.21-.721-.473-1.05-.736-.16-.19-.436-.39-.595-.579-.85-1.012-1.497-2.302-1.657-3.785-.139-1.07-.044-2.12.274-3.033.021-.234.159-.457.233-.627.138-.224.223-.51.36-.734 1.05-1.851 2.937-3.22 5.26-3.552 1.305-.125 2.589-.016 3.66.486.17.073.393.21.563.283.17.073.392.21.562.283a6.733 6.733 0 0 1 1.837 1.801"/><path fill="#F2F3FA" stroke="#1C1E33" stroke-miterlimit="10" stroke-width=".75" d="M8.764 63.084h18.649c3.813 0 6.933-3.138 6.933-6.974V32.818c0-3.835-3.12-6.973-6.933-6.973H8.764c-3.812 0-6.932 3.138-6.932 6.973V56.11c.07 3.836 3.12 6.974 6.932 6.974Z"/><path fill="#AFE4F4" stroke="#1C1E33" stroke-miterlimit="10" stroke-width=".75" d="M18.123 54.297c6.012 0 10.885-4.902 10.885-10.949 0-6.046-4.873-10.948-10.884-10.948-6.012 0-10.885 4.902-10.885 10.948 0 6.047 4.873 10.949 10.884 10.949Z"/><path fill="#fff" stroke="#1C1E33" stroke-miterlimit="10" stroke-width=".75" d="M8.14 47.672c-2.148-4.951-.277-10.67 4.09-13.529 1.873 0 4.16-.558 9.498 6.346a479.129 479.129 0 0 1 2.427 3.627c-1.11.627-2.219 1.045-2.219 1.045.971 2.093 3.05 5.37 1.318 7.88l-.832.42c-5.477 2.3-11.924-.21-14.281-5.789Z"/><path fill="#1C1E33" d="M19.302 36.096c-2.08-2.72-3.605-2.86-4.853-3.138-.277.14-.554.21-.901.349h-.07l-.831.418h-.07c-.277.14-.485.349-.762.488-1.248.907-2.288 2.022-3.05 3.347 0 .07-.07.07-.07.14-.138.21-.208.349-.277.558-.07.14-.139.209-.139.348-.07.14-.138.35-.208.558-.069.21-.138.349-.208.489-.069.139-.138.348-.138.488-.07.14-.07.348-.139.488-.07.14-.07.349-.139.488-.069.21-.069.349-.069.558-.07.14-.07.279-.07.418 0 .21 0 .419-.069.628v1.464c0 .349.07.698.139 1.046a11.92 11.92 0 0 0 1.04 3.139c.139.348.347.627.555.906.97 1.534 2.287 2.72 3.812 3.626.14-1.604-.623-3.696-1.317-5.37-1.109-2.72 1.317-3.068 2.565-1.882 1.248 1.116.902-.349.763-2.86-.07-3.556 2.773-5.508 4.506-6.694Z"/><path fill="#fff" stroke="#1C1E33" stroke-miterlimit="10" stroke-width=".75" d="M47.605 40.74H28.956c-3.813 0-6.932-3.139-6.932-6.974V10.474c0-3.835 3.12-6.973 6.932-6.973h18.649c3.813 0 6.933 3.138 6.933 6.973v23.292c0 3.835-3.12 6.974-6.933 6.974Z"/><path fill="#B9CDFF" stroke="#1C1E33" stroke-miterlimit="10" stroke-width=".75" d="M38.246 31.953c-6.011 0-10.884-4.901-10.884-10.948 0-6.047 4.873-10.948 10.884-10.948 6.01 0 10.884 4.901 10.884 10.948 0 6.047-4.873 10.948-10.884 10.948Z"/><path fill="#fff" stroke="#1C1E33" stroke-miterlimit="10" stroke-width=".75" d="M48.991 22.888c.97-5.37-2.149-10.46-7.07-12.204-1.803.419-4.16.419-7.835 8.438-.554 1.534-1.525 4.045-1.525 4.045a18.08 18.08 0 0 0 2.427.488c-.486 2.232-1.803 5.928.485 7.95.277.07.555.14.901.21 5.893 1.045 11.578-2.93 12.617-8.927Z"/><path fill="#1C1E33" d="M45.04 24.84c1.178-2.37-1.179-3.975-1.872-2.58-.693 1.464-2.01 1.813-1.664.628.486-2.371 1.525-5.37-2.149-6.137-3.674-.697-3.882-3.975-2.98-6.555.831-.14 1.663-.21 2.564-.14 6.032.349 10.607 5.58 10.191 11.646-.208 3.417-1.941 6.346-4.506 8.229-.901-1.186-.416-3.487.416-5.09Z"/></svg>