<svg xmlns="http://www.w3.org/2000/svg" xml:space="preserve" style="fill-rule:evenodd;clip-rule:evenodd;stroke-linejoin:round;stroke-miterlimit:2" viewBox="0 0 32 32"><clipPath id="dialect-indian_svg__a"><circle cx="16" cy="16" r="8"/></clipPath><g clip-path="url(#dialect-indian_svg__a)"><path d="M3 7.333h26v5.778H3z" style="fill:#f93"/><path d="M3 13.111h26v5.778H3z" style="fill:#fff"/><path d="M3 18.889h26v5.778H3z" style="fill:#128807"/><path d="M16 13.689a2.323 2.323 0 0 1 2.312 2.312A2.323 2.323 0 0 1 16 18.312a2.323 2.323 0 0 1-2.312-2.311A2.323 2.323 0 0 1 16 13.689Zm1.43 3.741a2.567 2.567 0 0 1-.121.111.101.101 0 0 0-.181.062c0 .022.007.043.021.061a1.94 1.94 0 0 1-.283.163.102.102 0 0 0-.093-.062.102.102 0 0 0-.101.101c0 .013.003.027.008.039a2.048 2.048 0 0 1-.316.085.102.102 0 0 0-.201.026 2.217 2.217 0 0 1-.326 0 .102.102 0 0 0-.088-.111.1.1 0 0 0-.113.084 1.938 1.938 0 0 1-.316-.084.105.105 0 0 0 .008-.039.102.102 0 0 0-.101-.101.102.102 0 0 0-.093.062 1.94 1.94 0 0 1-.283-.163.098.098 0 0 0 .021-.061.101.101 0 0 0-.181-.062 2.567 2.567 0 0 1-.121-.111l.907-.809.252-.321a.314.314 0 0 0 .051.039l-.244.327-.547 1.085.667-1.016.16-.375c.019.01.039.018.059.025l-.151.378-.247 1.19.381-1.154.057-.403a.466.466 0 0 0 .064.008l-.048.405.069 1.213.069-1.213-.048-.405a.466.466 0 0 0 .064-.008l.057.403.381 1.154-.247-1.19-.151-.378a.435.435 0 0 0 .059-.025l.16.375.667 1.016-.547-1.085-.244-.327a.314.314 0 0 0 .051-.039l.252.321.907.809Zm0-2.86c.038.039.075.079.111.121a.101.101 0 0 0 .062.181.098.098 0 0 0 .061-.021c.062.089.116.184.163.283a.102.102 0 0 0-.062.093c0 .055.046.101.101.101a.105.105 0 0 0 .039-.008c.036.102.065.208.085.316a.102.102 0 0 0 .013.202l.013-.001c.008.109.008.217 0 .326l-.013-.001a.102.102 0 0 0-.013.202c-.02.108-.049.214-.085.316a.105.105 0 0 0-.039-.008.102.102 0 0 0-.101.101c0 .041.025.077.062.093a1.94 1.94 0 0 1-.163.283.098.098 0 0 0-.061-.021.101.101 0 0 0-.062.181 2.567 2.567 0 0 1-.111.121l-.809-.907-.321-.252a.314.314 0 0 0 .039-.051l.327.244 1.085.547-1.016-.667-.375-.16a.435.435 0 0 0 .025-.059l.378.151 1.19.247-1.154-.381-.403-.057a.466.466 0 0 0 .008-.064l.405.048L18.022 16l-1.213-.069-.405.048a.466.466 0 0 0-.008-.064l.403-.057 1.154-.381-1.19.247-.378.151a.435.435 0 0 0-.025-.059l.375-.16 1.016-.667-1.085.547-.327.244a.314.314 0 0 0-.039-.051l.321-.252.809-.907Zm-2.86 0 .809.907.321.252a.314.314 0 0 0-.039.051l-.327-.244-1.085-.547 1.016.667.375.16a.435.435 0 0 0-.025.059l-.378-.151-1.19-.247 1.154.381.403.057a.466.466 0 0 0-.008.064l-.405-.048-1.213.069 1.213.069.405-.048a.466.466 0 0 0 .008.064l-.403.057-1.154.381 1.19-.247.378-.151c.007.02.015.04.025.059l-.375.16-1.016.667 1.085-.547.327-.244a.314.314 0 0 0 .039.051l-.321.252-.809.907a2.567 2.567 0 0 1-.111-.121.101.101 0 0 0-.062-.181.098.098 0 0 0-.061.021 1.94 1.94 0 0 1-.163-.283.102.102 0 0 0 .062-.093.102.102 0 0 0-.101-.101.105.105 0 0 0-.039.008 1.938 1.938 0 0 1-.084-.316.1.1 0 0 0 .084-.113.102.102 0 0 0-.111-.088 2.217 2.217 0 0 1 0-.326.102.102 0 0 0 .026-.201c.02-.108.049-.214.085-.316a.105.105 0 0 0 .039.008.102.102 0 0 0 .101-.101.102.102 0 0 0-.062-.093 1.94 1.94 0 0 1 .163-.283.098.098 0 0 0 .061.021.101.101 0 0 0 .062-.181c.036-.042.073-.082.111-.121Zm1.43-.592-.069 1.213.048.405a.466.466 0 0 0-.064.008l-.057-.403-.381-1.154.247 1.19.151.378a.435.435 0 0 0-.059.025l-.16-.375-.667-1.016.547 1.085.244.327a.314.314 0 0 0-.051.039l-.252-.321-.907-.809c.039-.038.079-.075.121-.111a.101.101 0 0 0 .181-.062.098.098 0 0 0-.021-.061 1.94 1.94 0 0 1 .283-.163.102.102 0 0 0 .093.062.102.102 0 0 0 .101-.101.105.105 0 0 0-.008-.039c.102-.036.208-.065.316-.085a.102.102 0 0 0 .202-.013l-.001-.013a2.22 2.22 0 0 1 .163-.006Zm0 0h.013c.051 0 .101.002.15.006l-.001.013a.102.102 0 0 0 .202.013c.108.02.214.049.316.085a.105.105 0 0 0-.008.039c0 .055.046.101.101.101a.102.102 0 0 0 .093-.062c.099.047.194.101.283.163a.098.098 0 0 0-.021.061.101.101 0 0 0 .181.062c.042.036.082.073.121.111l-.907.809-.252.321a.314.314 0 0 0-.051-.039l.244-.327.547-1.085-.667 1.016-.16.375a.435.435 0 0 0-.059-.025l.151-.378.247-1.19-.381 1.154-.057.403a.466.466 0 0 0-.064-.008l.048-.405L16 13.978Z" style="fill:#008"/></g></svg>