<svg xmlns="http://www.w3.org/2000/svg" width="32" height="32" fill="none"><g clip-path="url(#logo-error_svg__a)"><path fill="#15C39A" fill-rule="evenodd" d="M26.772 16c0 6.075-4.925 11-11 11s-11-4.925-11-11 4.925-11 11-11 11 4.925 11 11Z" clip-rule="evenodd"/><path fill="#fff" fill-rule="evenodd" d="M17.21 18.375c.065.36.403.607.77.607h1.152l.668-.094c-1.069 1.568-2.925 2.29-4.954 1.972-1.652-.26-3.071-1.377-3.67-2.938-1.36-3.544 1.229-6.927 4.6-6.927 1.758 0 3.3 1.029 4.183 2.271.235.338.7.462 1.039.227a.737.737 0 0 0 .222-.979 6.454 6.454 0 0 0-5.89-2.963c-3.216.215-5.818 2.847-6.003 6.065-.215 3.745 2.755 6.803 6.45 6.803 1.94 0 3.678-.845 4.862-2.213l-.14.785v.708c0 .366.246.705.606.77a.746.746 0 0 0 .884-.733V17.49h-4.047a.746.746 0 0 0-.732.884Z" clip-rule="evenodd"/><g filter="url(#logo-error_svg__b)"><path fill="#EA1537" d="M26.841 1.313c.407 0 .798.161 1.086.45l3.31 3.31c.289.288.45.679.45 1.086v4.682c0 .407-.161.798-.45 1.086l-3.31 3.31c-.288.289-.679.45-1.086.45H22.16c-.407 0-.798-.161-1.086-.45l-3.31-3.31a1.535 1.535 0 0 1-.45-1.086V6.16c0-.407.161-.798.45-1.086l3.31-3.31c.288-.289.679-.45 1.086-.45h4.682Z"/></g><g filter="url(#logo-error_svg__c)"><path stroke="#fff" stroke-linecap="round" stroke-width="1.514" d="M24.5 5.266v3.593"/></g><g filter="url(#logo-error_svg__d)"><circle cx="24.5" cy="11.555" r=".898" fill="#fff"/></g></g><defs><filter id="logo-error_svg__b" width="14.375" height="15.375" x="17.313" y="1.313" color-interpolation-filters="sRGB" filterUnits="userSpaceOnUse"><feFlood flood-opacity="0" result="BackgroundImageFix"/><feColorMatrix in="SourceAlpha" values="0 0 0 0 0 0 0 0 0 0 0 0 0 0 0 0 0 0 127 0"/><feOffset dy="1"/><feColorMatrix values="0 0 0 0 0 0 0 0 0 0 0 0 0 0 0 0 0 0 0.15 0"/><feBlend in2="BackgroundImageFix" result="effect1_dropShadow"/><feBlend in="SourceGraphic" in2="effect1_dropShadow" result="shape"/></filter><filter id="logo-error_svg__c" width="1.514" height="6.108" x="23.743" y="4.509" color-interpolation-filters="sRGB" filterUnits="userSpaceOnUse"><feFlood flood-opacity="0" result="BackgroundImageFix"/><feColorMatrix in="SourceAlpha" values="0 0 0 0 0 0 0 0 0 0 0 0 0 0 0 0 0 0 127 0"/><feOffset dy="1"/><feColorMatrix values="0 0 0 0 0 0 0 0 0 0 0 0 0 0 0 0 0 0 0.15 0"/><feBlend in2="BackgroundImageFix" result="effect1_dropShadow"/><feBlend in="SourceGraphic" in2="effect1_dropShadow" result="shape"/></filter><filter id="logo-error_svg__d" width="1.797" height="2.797" x="23.602" y="10.656" color-interpolation-filters="sRGB" filterUnits="userSpaceOnUse"><feFlood flood-opacity="0" result="BackgroundImageFix"/><feColorMatrix in="SourceAlpha" values="0 0 0 0 0 0 0 0 0 0 0 0 0 0 0 0 0 0 127 0"/><feOffset dy="1"/><feColorMatrix values="0 0 0 0 0 0 0 0 0 0 0 0 0 0 0 0 0 0 0.15 0"/><feBlend in2="BackgroundImageFix" result="effect1_dropShadow"/><feBlend in="SourceGraphic" in2="effect1_dropShadow" result="shape"/></filter><clipPath id="logo-error_svg__a"><path fill="#fff" d="M0 0h32v32H0z"/></clipPath></defs></svg>