<svg xmlns="http://www.w3.org/2000/svg" width="20" height="20" fill="none"><path fill="url(#emoji-neutral_svg__a)" d="M10 19.375a9.375 9.375 0 1 0 0-18.75 9.375 9.375 0 1 0 0 18.75Z"/><path fill="#302C3B" d="M14.022 14.375H5.977c-.782 0-.782-1.25 0-1.25h8.045c.783 0 .783 1.25 0 1.25Zm-7.147-4.219c.776 0 1.406-.84 1.406-1.875 0-1.035-.63-1.875-1.406-1.875-.777 0-1.407.84-1.407 1.875 0 1.036.63 1.875 1.407 1.875Zm6.25 0c.776 0 1.406-.84 1.406-1.875 0-1.035-.63-1.875-1.406-1.875-.777 0-1.407.84-1.407 1.875 0 1.036.63 1.875 1.407 1.875Z"/><defs><linearGradient id="emoji-neutral_svg__a" x1="10" x2="10" y1="19.375" y2=".625" gradientUnits="userSpaceOnUse"><stop stop-color="#FFA027"/><stop offset=".272" stop-color="#FFC151"/><stop offset=".763" stop-color="#FFC93F"/><stop offset="1" stop-color="#FFE261"/></linearGradient></defs></svg>