<svg xmlns="http://www.w3.org/2000/svg" width="202" height="32" fill="none"><path fill="#4C4C4C" fill-rule="evenodd" d="M36.917 22.95c-.446-.17-.738-.53-.738-1.01 0-.581.48-1.06 1.064-1.06.172 0 .31.034.43.085a5.965 5.965 0 0 0 2.541.548c1.787 0 2.628-.855 2.628-2.499v-.445c-.773.925-1.614 1.49-3.005 1.49-2.147 0-4.088-1.558-4.088-4.28v-.033c0-2.739 1.975-4.279 4.088-4.279 1.425 0 2.266.6 2.97 1.37v-.018c0-.702.584-1.283 1.306-1.283.72 0 1.304.581 1.304 1.3v5.905c0 1.643-.394 2.84-1.167 3.61-.859.856-2.181 1.233-3.967 1.233a8.843 8.843 0 0 1-3.366-.634Zm5.925-7.17v-.034c0-1.25-.98-2.123-2.25-2.123s-2.232.873-2.232 2.123v.034c0 1.266.962 2.122 2.232 2.122 1.27 0 2.25-.873 2.25-2.122Z" clip-rule="evenodd"/><path fill="#4C4C4C" fill-rule="evenodd" d="M36.917 22.95c-.446-.17-.738-.53-.738-1.01 0-.581.48-1.06 1.064-1.06.172 0 .31.034.43.085a5.965 5.965 0 0 0 2.541.548c1.787 0 2.628-.855 2.628-2.499v-.445c-.773.925-1.614 1.49-3.005 1.49-2.147 0-4.088-1.558-4.088-4.28v-.033c0-2.739 1.975-4.279 4.088-4.279 1.425 0 2.266.6 2.97 1.37v-.018c0-.702.584-1.283 1.306-1.283.72 0 1.304.581 1.304 1.3v5.905c0 1.643-.394 2.84-1.167 3.61-.859.856-2.181 1.233-3.967 1.233a8.843 8.843 0 0 1-3.366-.634Zm5.925-7.17v-.034c0-1.25-.98-2.123-2.25-2.123s-2.232.873-2.232 2.123v.034c0 1.266.962 2.122 2.232 2.122 1.27 0 2.25-.873 2.25-2.122Zm4.053-2.944c0-.719.584-1.3 1.305-1.3.722 0 1.305.581 1.305 1.3v.41c.378-.889.996-1.71 1.77-1.71.807 0 1.27.53 1.27 1.266 0 .684-.446 1.095-.979 1.215-1.322.309-2.06 1.318-2.06 3.166v2.43c0 .719-.584 1.301-1.306 1.301a1.302 1.302 0 0 1-1.305-1.3v-6.778Zm5.341 5.34v-.034c0-2.003 1.528-2.927 3.71-2.927.927 0 1.597.154 2.25.376v-.154c0-1.077-.67-1.677-1.975-1.677a6.01 6.01 0 0 0-1.804.257 1.108 1.108 0 0 1-.377.069 1.062 1.062 0 0 1-1.082-1.062c0-.462.29-.855.704-1.01.824-.308 1.717-.478 2.936-.478 1.425 0 2.456.376 3.108 1.026.687.684.997 1.695.997 2.927v4.175c0 .702-.567 1.25-1.271 1.25-.756 0-1.254-.53-1.254-1.078v-.018c-.635.702-1.51 1.164-2.782 1.164-1.734 0-3.16-.992-3.16-2.806Zm5.994-.6v-.462a4.063 4.063 0 0 0-1.666-.342c-1.117 0-1.803.445-1.803 1.267v.034c0 .702.584 1.113 1.425 1.113 1.22 0 2.044-.668 2.044-1.61Zm3.864-4.74c0-.719.584-1.3 1.306-1.3.721 0 1.305.581 1.305 1.3v.103c.6-.77 1.391-1.472 2.713-1.472 1.202 0 2.112.53 2.593 1.455.807-.941 1.77-1.455 3.022-1.455 1.941 0 3.11 1.164 3.11 3.372v4.774c0 .719-.585 1.301-1.306 1.301a1.303 1.303 0 0 1-1.306-1.3v-3.92c0-1.232-.55-1.865-1.528-1.865-.979 0-1.58.633-1.58 1.865v3.92c0 .718-.583 1.3-1.305 1.3a1.303 1.303 0 0 1-1.305-1.3v-3.92c0-1.232-.55-1.865-1.528-1.865-.98 0-1.58.633-1.58 1.865v3.92c0 .718-.584 1.3-1.305 1.3a1.302 1.302 0 0 1-1.306-1.3v-6.778Zm15.457 0c0-.719.584-1.3 1.305-1.3.722 0 1.306.581 1.306 1.3v.103c.6-.77 1.39-1.472 2.713-1.472 1.202 0 2.112.53 2.593 1.455.807-.941 1.769-1.455 3.022-1.455 1.941 0 3.109 1.164 3.109 3.372v4.774c0 .719-.584 1.301-1.306 1.301a1.303 1.303 0 0 1-1.305-1.3v-3.92c0-1.232-.55-1.865-1.528-1.865-.98 0-1.58.633-1.58 1.865v3.92c0 .718-.584 1.3-1.305 1.3a1.302 1.302 0 0 1-1.305-1.3v-3.92c0-1.232-.55-1.865-1.529-1.865-.979 0-1.58.633-1.58 1.865v3.92c0 .718-.583 1.3-1.305 1.3a1.302 1.302 0 0 1-1.305-1.3v-6.778Zm14.907 5.34v-.034c0-2.003 1.529-2.927 3.71-2.927a6.56 6.56 0 0 1 2.249.376v-.154c0-1.077-.67-1.677-1.975-1.677-.721 0-1.305.103-1.803.257a1.108 1.108 0 0 1-.377.069 1.061 1.061 0 0 1-1.083-1.062c0-.462.293-.855.704-1.01.825-.308 1.718-.478 2.937-.478 1.426 0 2.456.376 3.108 1.026.687.684.996 1.695.996 2.927v4.175a1.25 1.25 0 0 1-1.27 1.25c-.756 0-1.254-.53-1.254-1.078v-.018c-.635.702-1.512 1.164-2.782 1.164-1.735 0-3.16-.992-3.16-2.806Zm5.994-.6v-.462a4.065 4.065 0 0 0-1.666-.342c-1.117 0-1.803.445-1.803 1.267v.034c0 .702.583 1.113 1.425 1.113 1.219 0 2.044-.668 2.044-1.61Zm3.864-4.74c0-.719.584-1.3 1.305-1.3.722 0 1.305.581 1.305 1.3v.41c.378-.889.996-1.71 1.77-1.71.806 0 1.27.53 1.27 1.266 0 .684-.447 1.095-.979 1.215-1.322.309-2.061 1.318-2.061 3.166v2.43c0 .719-.583 1.301-1.305 1.301a1.303 1.303 0 0 1-1.305-1.3v-6.778Zm6.44-3.32c0-.72.584-1.3 1.305-1.3.722 0 1.306.58 1.306 1.3v10.097c0 .719-.584 1.301-1.306 1.301a1.303 1.303 0 0 1-1.305-1.3V9.515Zm4.689 13.845c-.378-.136-.825-.445-.825-1.078a1.04 1.04 0 0 1 1.031-1.061c.206 0 .326.034.429.068.223.069.361.104.55.104.463 0 .687-.086.927-.549l.086-.205-3.142-7.256a1.883 1.883 0 0 1-.138-.6c0-.735.567-1.248 1.288-1.248.652 0 1.03.359 1.253.974l1.993 5.34 1.923-5.322c.206-.547.583-.992 1.254-.992.669 0 1.235.513 1.235 1.197 0 .206-.068.497-.119.617l-3.212 7.684c-.773 1.865-1.545 2.567-3.108 2.567-.584 0-.996-.085-1.425-.24Z" clip-rule="evenodd"/><path fill="#15C39A" fill-rule="evenodd" d="M28.526 16.214c0 7.85-6.386 14.214-14.263 14.214S0 24.064 0 16.214C0 8.364 6.386 2 14.263 2s14.263 6.364 14.263 14.214Z" clip-rule="evenodd"/><path fill="#fff" fill-rule="evenodd" d="M16.127 19.283c.084.465.523.784.998.784h1.494l.866-.12c-1.386 2.026-3.792 2.958-6.423 2.547-2.142-.335-3.982-1.78-4.759-3.797-1.762-4.579 1.593-8.95 5.966-8.95 2.279 0 4.277 1.329 5.423 2.935.304.436.908.597 1.347.293a.95.95 0 0 0 .288-1.265 8.377 8.377 0 0 0-7.637-3.83c-4.17.279-7.545 3.68-7.785 7.839-.278 4.838 3.573 8.79 8.364 8.79a8.304 8.304 0 0 0 6.304-2.86l-.182 1.014v.916c0 .472.32.91.787.994a.967.967 0 0 0 1.146-.947V18.14h-5.247a.965.965 0 0 0-.95 1.143Z" clip-rule="evenodd"/><path fill="#15C39A" fill-rule="evenodd" d="M127.548 19.575V9.32c0-.73.642-1.321 1.435-1.321s1.435.59 1.435 1.32v3.494c.698-.869 1.661-1.512 3.152-1.512 2.359 0 4.606 1.703 4.606 4.814v.035c0 3.111-2.209 4.814-4.606 4.814-1.529 0-2.473-.643-3.152-1.39v.017c0 .713-.642 1.304-1.435 1.304s-1.435-.591-1.435-1.321Zm5.286-.852c1.34 0 2.472-1.008 2.472-2.572v-.035c0-1.546-1.132-2.572-2.472-2.572-1.341 0-2.454 1.025-2.454 2.572v.035c0 1.547 1.113 2.572 2.454 2.572Zm15.84-6.03v6.882c0 .73-.642 1.32-1.435 1.32s-1.435-.59-1.435-1.32v-.104c-.66.782-1.51 1.494-2.963 1.494-2.171 0-3.436-1.32-3.436-3.458v-4.815c0-.73.642-1.32 1.435-1.32s1.434.59 1.434 1.32v3.98c0 1.252.642 1.895 1.737 1.895 1.095 0 1.793-.643 1.793-1.895v-3.98c0-.73.642-1.32 1.435-1.32s1.435.59 1.435 1.32Zm5.306 8.272a7.498 7.498 0 0 1-3.813-1.06c-.302-.174-.547-.487-.547-.904 0-.59.491-1.042 1.133-1.042.207 0 .415.052.566.139.963.556 1.925.834 2.737.834.831 0 1.208-.278 1.208-.695v-.035c0-.574-.982-.765-2.095-1.078-1.416-.382-3.02-.99-3.02-2.798v-.035c0-1.894 1.661-2.954 3.699-2.954 1.057 0 2.152.26 3.134.713.415.19.679.538.679.99 0 .591-.509 1.043-1.151 1.043a1.12 1.12 0 0 1-.529-.122c-.811-.365-1.585-.59-2.189-.59-.699 0-1.057.277-1.057.642v.035c0 .521.962.765 2.057 1.112 1.416.435 3.058 1.06 3.058 2.764v.035c0 2.068-1.68 3.006-3.87 3.006Zm5.081-11.679v-.035c0-.764.698-1.234 1.604-1.234.906 0 1.605.47 1.605 1.234v.035c0 .765-.699 1.251-1.605 1.251s-1.604-.486-1.604-1.25Zm.17 10.289v-6.882c0-.73.642-1.321 1.434-1.321.793 0 1.435.59 1.435 1.32v6.883c0 .73-.642 1.32-1.435 1.32-.792 0-1.434-.59-1.434-1.32Zm4.759 0v-6.882c0-.73.642-1.321 1.435-1.321s1.434.59 1.434 1.32v.105c.661-.782 1.511-1.495 2.964-1.495 2.171 0 3.435 1.321 3.435 3.459v4.814c0 .73-.641 1.32-1.434 1.32-.793 0-1.435-.59-1.435-1.32v-3.98c0-1.251-.642-1.895-1.736-1.895-1.095 0-1.794.644-1.794 1.895v3.98c0 .73-.641 1.32-1.434 1.32-.793 0-1.435-.59-1.435-1.32Zm13.273-4.171h4.323c-.17-1.182-.925-1.982-2.133-1.982-1.19 0-1.964.782-2.19 1.982Zm5.984 4.466c-.888.695-2.039 1.13-3.511 1.13-3.039 0-5.286-1.964-5.286-4.814v-.035c0-2.659 2.058-4.849 5.003-4.849 3.378 0 4.87 2.555 4.87 4.484 0 .765-.586 1.269-1.341 1.269h-5.681c.283 1.199 1.189 1.825 2.472 1.825a3.5 3.5 0 0 0 2.039-.626c.208-.139.396-.209.699-.209.641 0 1.113.452 1.113 1.043 0 .348-.17.608-.377.782Zm6.005 1.095a7.496 7.496 0 0 1-3.813-1.06c-.302-.174-.547-.487-.547-.904 0-.59.49-1.042 1.132-1.042.208 0 .415.052.566.139.963.556 1.926.834 2.738.834.83 0 1.208-.278 1.208-.695v-.035c0-.574-.982-.765-2.096-1.078-1.415-.382-3.02-.99-3.02-2.798v-.035c0-1.894 1.661-2.954 3.7-2.954 1.057 0 2.152.26 3.133.713.416.19.68.538.68.99 0 .591-.51 1.043-1.152 1.043a1.12 1.12 0 0 1-.528-.122c-.812-.365-1.586-.59-2.19-.59-.698 0-1.057.277-1.057.642v.035c0 .521.963.765 2.058 1.112 1.415.435 3.058 1.06 3.058 2.764v.035c0 2.068-1.68 3.006-3.87 3.006Zm8.478 0a7.496 7.496 0 0 1-3.813-1.06c-.302-.174-.547-.487-.547-.904 0-.59.491-1.042 1.132-1.042.208 0 .416.052.567.139.962.556 1.925.834 2.737.834.83 0 1.208-.278 1.208-.695v-.035c0-.574-.982-.765-2.096-1.078-1.415-.382-3.02-.99-3.02-2.798v-.035c0-1.894 1.661-2.954 3.7-2.954 1.057 0 2.152.26 3.133.713.416.19.68.538.68.99 0 .591-.51 1.043-1.151 1.043a1.12 1.12 0 0 1-.529-.122c-.812-.365-1.586-.59-2.19-.59-.698 0-1.057.277-1.057.642v.035c0 .521.963.765 2.058 1.112 1.416.435 3.058 1.06 3.058 2.764v.035c0 2.068-1.68 3.006-3.87 3.006Z" clip-rule="evenodd"/></svg>