<svg xmlns="http://www.w3.org/2000/svg" width="60" height="16" fill="none"><rect width="60" height="16" fill="#D7F7F0" rx="3"/><path fill="#0D8065" d="M4.881 12H7.51c1.719 0 2.429-.838 2.429-1.932 0-1.15-.796-1.775-1.463-1.818v-.071c.625-.17 1.179-.582 1.179-1.52 0-1.065-.71-1.932-2.23-1.932H4.88V12zm.88-.781V8.69h1.79c.952 0 1.549.64 1.549 1.378 0 .64-.44 1.15-1.591 1.15H5.762zm0-3.296V5.51h1.663c.966 0 1.392.51 1.392 1.15 0 .767-.625 1.264-1.42 1.264H5.761zm10.797-3.196v4.816c0 1.136-.91 1.761-1.946 1.761-1.037 0-1.946-.625-1.946-1.761V4.727h-.881v4.816c0 1.633 1.293 2.585 2.827 2.585s2.826-.952 2.826-2.585V4.727h-.88zm7.016 1.818h.853c-.04-1.097-1.052-1.917-2.458-1.917-1.392 0-2.486.81-2.486 2.031 0 .98.71 1.563 1.847 1.89l.895.255c.767.213 1.449.483 1.449 1.207 0 .796-.767 1.321-1.776 1.321-.866 0-1.633-.383-1.704-1.207h-.91c.086 1.193 1.052 2.003 2.614 2.003 1.676 0 2.628-.924 2.628-2.102 0-1.364-1.293-1.804-2.045-2.003l-.739-.2c-.54-.141-1.406-.425-1.406-1.207 0-.696.639-1.207 1.605-1.207.88 0 1.548.42 1.633 1.136zm3.68-1.818h-.88V12h.88V4.727zm7.934 0h-.867v5.725h-.07l-3.978-5.725h-.852V12h.88V6.29h.071L34.335 12h.853V4.727zM37.35 12h4.446v-.781H38.23V8.747h3.282v-.781H38.23V5.509h3.509v-.782h-4.39V12zm10.354-5.455h.852c-.04-1.097-1.051-1.917-2.457-1.917-1.392 0-2.486.81-2.486 2.031 0 .98.71 1.563 1.846 1.89l.895.255c.767.213 1.45.483 1.45 1.207 0 .796-.768 1.321-1.776 1.321-.867 0-1.634-.383-1.705-1.207h-.91c.086 1.193 1.052 2.003 2.615 2.003 1.676 0 2.627-.924 2.627-2.102 0-1.364-1.292-1.804-2.045-2.003l-.739-.2c-.54-.141-1.406-.425-1.406-1.207 0-.696.64-1.207 1.605-1.207.88 0 1.548.42 1.634 1.136zm6.777 0h.852c-.04-1.097-1.051-1.917-2.457-1.917-1.392 0-2.486.81-2.486 2.031 0 .98.71 1.563 1.846 1.89l.895.255c.767.213 1.449.483 1.449 1.207 0 .796-.767 1.321-1.776 1.321-.866 0-1.633-.383-1.704-1.207h-.91c.086 1.193 1.052 2.003 2.614 2.003 1.677 0 2.628-.924 2.628-2.102 0-1.364-1.292-1.804-2.045-2.003l-.739-.2c-.54-.141-1.406-.425-1.406-1.207 0-.696.64-1.207 1.605-1.207.88 0 1.548.42 1.634 1.136z"/></svg>