<svg xmlns="http://www.w3.org/2000/svg" width="22" height="22"><g fill="none" fill-rule="evenodd"><path fill="#018374" d="M10.97 0C4.912 0 0 4.91 0 10.968s4.912 10.97 10.97 10.97c6.06 0 10.97-4.912 10.97-10.97C21.94 4.91 17.03 0 10.97 0"/><path fill="#FFF" d="M17.133 16.713c0 .456-.385.816-.857.73-.36-.064-.58-.402-.58-.766v-.707l.125-.782a6.396 6.396 0 0 1-4.856 2.206c-3.684 0-6.65-3.05-6.437-6.782.185-3.21 2.78-5.866 5.986-6.08 2.464-.166 4.652 1.077 5.87 2.922h-.004c.192.41.104.786-.217 1.01a.742.742 0 0 1-1.035-.182v-.008c-.882-1.23-2.42-2.267-4.172-2.267-3.363 0-5.944 3.37-4.588 6.905.597 1.556 2.012 2.67 3.66 2.928 2.023.318 3.874-.378 4.94-1.942l-.666.117h-1.15c-.364 0-.702-.22-.767-.58-.085-.47.275-.855.73-.855h4.018v4.133"/></g></svg>