<svg xmlns="http://www.w3.org/2000/svg" width="37" height="37"><g fill="none" fill-rule="evenodd"><path fill="#15C39A" d="M26.591 33.464c2.135-13.34 3.488-20.707 4.06-22.102.858-2.092 1.146-2.17 1.805-1.456s1.096-.38.422 3.822c-.45 2.802-1.588 9.38-3.414 19.736H26.59zm-.623-26.039 5.153.123c-1.783.37-2.787 1.611-3.013 3.723-.286 2.677-2.645 16.37-3.662 21.047-.186.858-.68 2.42-1.79 2.052-.739-.245-1.278-.667-1.616-1.266l4.928-25.679z" opacity=".6"/><path fill="#15C39A" d="M19.041 33.09c.08-1.18 1.805-10.57 5.173-28.172a1 1 0 0 0-.973-1.188l-12.19-.109L5.37 8.663C2.515 21.517 1.035 28.766.932 30.41c-.035.55.672 2.908 2.1 3.3 3.094.848 14.608 1.772 16.05 1.969 1.441.197-.165-.779-.041-2.589z"/><path fill="#555C6A" fill-rule="nonzero" d="M23.674 34.691a1 1 0 0 1-.127 1.996c-7.594-.483-14.397-1.05-18.046-1.503C1.596 34.7.258 32.633.593 29.268c.048-.481.118-.936.243-1.657l.103-.588c.037-.215.066-.391.09-.555.198-1.301.885-4.588 3.4-16.217a1 1 0 0 1 1.954.423C3.887 22.219 3.195 25.531 3.007 26.767c-.027.18-.058.368-.097.595l-.103.593a20.206 20.206 0 0 0-.223 1.512c-.236 2.361.433 3.394 3.163 3.732 3.601.447 10.37 1.012 17.927 1.492zM14.97 2.676a1 1 0 0 1 .02-2l11.152.113a2.263 2.263 0 0 1 2.196 2.693c-3.384 17.498-5.171 27.017-5.325 28.35-.27 2.339-.17 2.717.759 2.87 1.055.175 2.376-1.391 2.725-3.153.156-.788.594-3.209 1.729-9.517 1.062-5.906 1.43-7.943 1.655-9.145.66-3.517 2.08-5.234 4.436-4.753 2.265.464 2.603 2.569 1.885 5.982-.2.949-.581 3.1-1.677 9.393-1.206 6.924-1.624 9.265-1.773 9.794a1 1 0 0 1-1.925-.542c.118-.419.586-3.042 1.726-9.586 1.108-6.364 1.484-8.486 1.692-9.471.505-2.401.333-3.475-.33-3.61-.935-.192-1.586.596-2.068 3.162a1616.5 1616.5 0 0 0-1.652 9.127c-1.142 6.347-1.577 8.748-1.736 9.554-.53 2.682-2.602 5.137-5.013 4.739-2.444-.403-2.803-1.76-2.42-5.074.163-1.414 1.934-10.846 5.348-28.5.007-.192-.11-.311-.254-.313l-11.15-.113z"/><path fill="#15C39A" d="m5.393 8.661 4.31.19 1.326-5.233z" style="mix-blend-mode:multiply"/><path fill="#FFF" fill-rule="nonzero" d="M8.701 14.824a.75.75 0 1 1 .06-1.5l10.769.427a.75.75 0 0 1-.06 1.498l-10.769-.425zm-.525 2.954a.75.75 0 0 1 .068-1.499l10.29.472a.75.75 0 1 1-.068 1.498l-10.29-.471zm-.536 3.023a.75.75 0 1 1 .079-1.498l9.81.517a.75.75 0 0 1-.078 1.498l-9.811-.517zm-.521 2.954a.75.75 0 0 1 .079-1.497l4.993.263a.75.75 0 1 1-.079 1.498l-4.993-.264z"/></g></svg>