<svg xmlns="http://www.w3.org/2000/svg" viewBox="0 0 24 24"><path fill="#6D758D" d="M24 12c0-6.623-5.377-12-12-12S0 5.377 0 12s5.377 12 12 12 12-5.377 12-12Z"/><path fill="#fff" d="M12.5 23.523V6.5h-8v14.865c-.35-.28-.684-.58-1-.898V6a.5.5 0 0 1 .5-.5h9a.5.5 0 0 1 .5.5v3.67l6.697 2.87a.5.5 0 0 1 .303.46v7.467l-.017.017c-.311.311-.639.605-.983.881V13.33l-6-2.572v13.149c-.33.041-.663.069-1 .083v-.467ZM16 19v3h1v-3h-1Zm-9.5 0v3h1v-3h-1Zm3 0v3h1v-3h-1Zm6.5-5v3h1v-3h-1Zm-9.5 0v3h1v-3h-1Zm3 0v3h1v-3h-1Zm-3-5v3h1V9h-1Zm3 0v3h1V9h-1Z"/></svg>