<svg xmlns="http://www.w3.org/2000/svg" xmlns:xlink="http://www.w3.org/1999/xlink" width="64" height="64"><defs><path id="onboarding-popup_svg__a" d="M17.972 49c16.202-6.448 17.862-21.658 17.975-22.967.113-1.309.013-21.558.013-21.558-.007-1.66-1.351-3.182-2.995-3.382 0 0-7.685-1.093-14.993-1.093C10.665 0 2.965 1.095 2.965 1.095 1.328 1.301 0 2.805 0 4.468v21.567S1.755 42.545 17.972 49z"/></defs><g fill="none" fill-rule="evenodd"><path fill="#EDEDF3" d="M61.143 48H16.857C15.28 48 14 46.7 14 45.095V6.905C14 5.301 15.279 4 16.857 4h44.286C62.72 4 64 5.3 64 6.905v38.19C64 46.699 62.721 48 61.143 48"/><path fill="#FFF" d="M58.143 45H13.857C12.28 45 11 43.7 11 42.095V3.905C11 2.301 12.28 1 13.857 1h44.286C59.72 1 61 2.3 61 3.905v38.19C61 43.699 59.72 45 58.143 45"/><path stroke="#6F7787" stroke-linecap="round" stroke-width="1.5" d="M58.143 45H13.857C12.28 45 11 43.7 11 42.095V3.905C11 2.301 12.28 1 13.857 1h44.286C59.72 1 61 2.3 61 3.905v38.19C61 43.699 59.72 45 58.143 45z"/><path fill="#6F7787" d="M61 7H11V3.73C11 2.224 12.28 1 13.857 1h44.286C59.72 1 61 2.223 61 3.73V7z"/><path stroke="#D2D4DE" stroke-linecap="round" stroke-width="1.5" d="M15 19h42m-42 5h42"/><path fill="#6CD898" d="M57 36.462C57 38.382 55.367 40 53.445 40 51.523 40 50 38.381 50 36.462A3.437 3.437 0 0 1 53.445 33C55.367 33 57 34.542 57 36.462"/><path fill="#FFF" d="M59 4a1 1 0 1 1-2 0 1 1 0 0 1 2 0m-4 0a1 1 0 1 1-2 0 1 1 0 0 1 2 0m-3 0a1 1 0 1 1-2 0 1 1 0 0 1 2 0M3 40.503C3.106 41.753 4.709 56.676 20.499 63 36.274 56.683 37.889 41.784 38 40.501V16.438C34.817 15.956 27.614 15 20.5 15c-7.115 0-14.317.956-17.5 1.438v24.065z"/><g transform="translate(0 12)"><mask id="onboarding-popup_svg__b" fill="#fff"><use xlink:href="#onboarding-popup_svg__a"/></mask><use xlink:href="#onboarding-popup_svg__a" fill="#D6B6F0"/><path fill="#CAA3E9" d="M-12.8-7.778h32v59.889h-32z" mask="url(#onboarding-popup_svg__b)"/></g><path stroke="#6F7787" stroke-linecap="round" stroke-width="1.5" d="M3 40.503C3.106 41.753 4.709 56.676 20.499 63 36.274 56.683 37.889 41.784 38 40.501V18.438c0-1.105-.889-2.118-1.983-2.256 0 0-8.403-1.182-15.517-1.182-7.115 0-15.53 1.184-15.53 1.184-1.088.14-1.97 1.153-1.97 2.254v22.065z"/><path fill="#FFF" d="M10 34.5a9.5 9.5 0 0 1 9.5-9.5 9.5 9.5 0 0 1 9.5 9.5 9.5 9.5 0 0 1-9.5 9.5 9.5 9.5 0 0 1-9.5-9.5zm11.251 1.264a.643.643 0 0 0-.631.762c.056.31.348.523.663.523h.993l.576-.081c-.921 1.351-2.52 1.973-4.27 1.699-1.423-.224-2.646-1.187-3.162-2.532-1.17-3.054 1.06-5.969 3.965-5.969 1.515 0 2.843.886 3.604 1.957.22.31.603.398.895.196a.634.634 0 0 0 .187-.844h.004a5.562 5.562 0 0 0-5.074-2.554c-2.772.186-5.015 2.454-5.174 5.227-.185 3.227 2.374 5.862 5.558 5.862a5.51 5.51 0 0 0 4.19-1.906l-.121.675v.611c0 .315.212.607.523.663a.643.643 0 0 0 .762-.631v-3.658H21.25z"/></g></svg>