<svg xmlns="http://www.w3.org/2000/svg" width="18" height="18"><g fill="none" fill-rule="evenodd" transform="translate(-1 -1)"><circle cx="10" cy="10" r="9.008" fill="#15C39A"/><path fill="#FFF" d="M11.318 11.843c.052.297.335.504.64.504h.963l.56-.074c-.895 1.297-2.438 1.897-4.13 1.638-1.38-.214-2.566-1.14-3.065-2.437-1.134-2.942 1.03-5.75 3.84-5.75 1.468 0 2.75.852 3.49 1.882.193.304.58.385.864.185a.608.608 0 0 0 .178-.815 5.39 5.39 0 0 0-4.906-2.46c-2.677.193-4.854 2.37-5.003 5.04-.18 3.103 2.295 5.637 5.382 5.637a5.357 5.357 0 0 0 4.056-1.837l-.12.652v.585c0 .304.21.586.508.637a.62.62 0 0 0 .738-.608v-3.52H11.93a.629.629 0 0 0-.612.74z"/></g></svg>