<svg xmlns="http://www.w3.org/2000/svg" width="20" height="20" fill="none"><path fill="url(#emoji-disheartening_svg__a)" d="M10 19.375a9.375 9.375 0 1 0 0-18.75 9.375 9.375 0 1 0 0 18.75Z"/><path fill="#302C3B" d="M7.06 16.29c1.654-1.19 4.226-1.19 5.881 0 .254.183.405-.014.324-.169-1.608-3.075-4.922-3.075-6.53 0-.081.155.07.352.324.17Zm9.103-5.603c-1.596.604-3.674.047-4.754-1.274-.165-.202-.33-.076-.298.067.634 2.832 3.311 3.55 5.277 1.413.098-.107.02-.299-.226-.207ZM8.591 9.413c-1.08 1.321-3.158 1.878-4.753 1.274-.245-.093-.325.099-.226.206 1.966 2.137 4.643 1.42 5.277-1.413.033-.143-.132-.27-.298-.067Z"/><defs><linearGradient id="emoji-disheartening_svg__a" x1="10" x2="10" y1="19.375" y2=".625" gradientUnits="userSpaceOnUse"><stop stop-color="#FFA027"/><stop offset=".272" stop-color="#FFC151"/><stop offset=".763" stop-color="#FFC93F"/><stop offset="1" stop-color="#FFE261"/></linearGradient></defs></svg>