<svg xmlns="http://www.w3.org/2000/svg" width="37" height="35" fill="none"><path fill="#15C39A" fill-rule="evenodd" d="M27.772 16c0 6.075-4.925 11-11 11s-11-4.925-11-11 4.925-11 11-11 11 4.925 11 11Z" clip-rule="evenodd"/><path fill="#fff" fill-rule="evenodd" d="M18.21 18.375c.065.36.403.607.77.607h1.152l.668-.094c-1.069 1.568-2.925 2.29-4.954 1.972-1.652-.26-3.071-1.377-3.67-2.938-1.36-3.544 1.229-6.927 4.6-6.927 1.758 0 3.3 1.029 4.183 2.271.235.338.7.462 1.039.227a.737.737 0 0 0 .222-.979 6.454 6.454 0 0 0-5.89-2.963c-3.216.215-5.818 2.847-6.003 6.066-.215 3.744 2.755 6.802 6.45 6.802 1.94 0 3.678-.845 4.862-2.213l-.14.785v.709c0 .365.246.704.606.769a.746.746 0 0 0 .884-.733V17.49h-4.047a.746.746 0 0 0-.732.884Z" clip-rule="evenodd"/><g filter="url(#grammarly-warning_svg__a)"><path fill="#FFB61A" d="M23.547 16.079a1.54 1.54 0 0 1 2.677 0l6.024 10.513c.595 1.038-.149 2.336-1.339 2.336H18.863c-1.19 0-1.934-1.298-1.339-2.336l6.023-10.513Z"/></g><g filter="url(#grammarly-warning_svg__b)"><path stroke="#fff" stroke-linecap="round" stroke-width="1.514" d="M24.886 19.464v3.786"/></g><g filter="url(#grammarly-warning_svg__c)"><circle cx="24.886" cy="26.089" r=".946" fill="#fff"/></g><defs><filter id="grammarly-warning_svg__a" width="15.143" height="14.628" x="17.315" y="15.3" color-interpolation-filters="sRGB" filterUnits="userSpaceOnUse"><feFlood flood-opacity="0" result="BackgroundImageFix"/><feColorMatrix in="SourceAlpha" values="0 0 0 0 0 0 0 0 0 0 0 0 0 0 0 0 0 0 127 0"/><feOffset dy="1"/><feColorMatrix values="0 0 0 0 0 0 0 0 0 0 0 0 0 0 0 0 0 0 0.15 0"/><feBlend in2="BackgroundImageFix" result="effect1_dropShadow"/><feBlend in="SourceGraphic" in2="effect1_dropShadow" result="shape"/></filter><filter id="grammarly-warning_svg__b" width="1.514" height="6.3" x="24.129" y="18.707" color-interpolation-filters="sRGB" filterUnits="userSpaceOnUse"><feFlood flood-opacity="0" result="BackgroundImageFix"/><feColorMatrix in="SourceAlpha" values="0 0 0 0 0 0 0 0 0 0 0 0 0 0 0 0 0 0 127 0"/><feOffset dy="1"/><feColorMatrix values="0 0 0 0 0 0 0 0 0 0 0 0 0 0 0 0 0 0 0.15 0"/><feBlend in2="BackgroundImageFix" result="effect1_dropShadow"/><feBlend in="SourceGraphic" in2="effect1_dropShadow" result="shape"/></filter><filter id="grammarly-warning_svg__c" width="1.893" height="2.893" x="23.94" y="25.142" color-interpolation-filters="sRGB" filterUnits="userSpaceOnUse"><feFlood flood-opacity="0" result="BackgroundImageFix"/><feColorMatrix in="SourceAlpha" values="0 0 0 0 0 0 0 0 0 0 0 0 0 0 0 0 0 0 127 0"/><feOffset dy="1"/><feColorMatrix values="0 0 0 0 0 0 0 0 0 0 0 0 0 0 0 0 0 0 0.15 0"/><feBlend in2="BackgroundImageFix" result="effect1_dropShadow"/><feBlend in="SourceGraphic" in2="effect1_dropShadow" result="shape"/></filter></defs></svg>