<svg xmlns="http://www.w3.org/2000/svg" width="20" height="20" fill="none"><mask id="info_svg__a" fill="#fff"><path d="M18.875 9.938A8.938 8.938 0 1 1 1 9.938a8.938 8.938 0 0 1 17.875 0z"/></mask><path fill="#6D758D" d="M10.75 9.125a.813.813 0 0 0-1.625 0h1.625zM9.125 14a.813.813 0 0 0 1.625 0H9.125zm1.625-8.141a.813.813 0 0 0-1.625 0h1.625zm-1.625.016a.813.813 0 0 0 1.625 0H9.125zm0 3.25V14h1.625V9.125H9.125zm0-3.266v.016h1.625v-.016H9.125zm8.125 4.079a7.312 7.312 0 0 1-7.313 7.312v3.25c5.834 0 10.563-4.729 10.563-10.563h-3.25zM9.937 17.25a7.312 7.312 0 0 1-7.312-7.313h-3.25c0 5.834 4.729 10.563 10.563 10.563v-3.25zM2.625 9.937a7.313 7.313 0 0 1 7.313-7.312v-3.25C4.104-.625-.626 4.104-.626 9.938h3.25zm7.313-7.312a7.312 7.312 0 0 1 7.312 7.313h3.25C20.5 4.104 15.771-.626 9.937-.626v3.25z" mask="url(#info_svg__a)"/></svg>