<svg xmlns="http://www.w3.org/2000/svg" xml:space="preserve" style="fill-rule:evenodd;clip-rule:evenodd;stroke-linejoin:round;stroke-miterlimit:2" viewBox="0 0 44 48"><path d="M7.116 16.429a3.366 3.366 0 0 1 3.382 3.373v3.662c0 .576.495 1.07 1.073 1.07h1.98V15.03a5.908 5.908 0 0 1 5.94-5.925c3.3 0 5.981 2.675 5.981 5.925v17.938h1.98a1.09 1.09 0 0 0 1.072-1.07v-3.662a3.366 3.366 0 0 1 3.382-3.373 3.367 3.367 0 0 1 3.383 3.373v3.662c0 4.32-3.548 7.858-7.879 7.858h-1.98v7.694H13.592V31.322h-1.98c-4.372 0-7.92-3.538-7.92-7.858v-3.662c0-1.851 1.527-3.373 3.424-3.373Z" style="fill:#15c39a;fill-rule:nonzero"/><path d="M37.5 12.5a6 6 0 1 0 0-12 6 6 0 0 0 0 12Z" style="fill:#f8e485;fill-rule:nonzero"/><path d="M37.5 13a6.5 6.5 0 1 0 0-13 6.5 6.5 0 0 0 0 13Zm0-1a5.5 5.5 0 1 1 0-11 5.5 5.5 0 1 1 0 11ZM13.092 47H0v1h38.81v-1H25.93v-6.744h1.48c4.607 0 8.379-3.763 8.379-8.358v-3.662a3.865 3.865 0 0 0-3.883-3.873 3.865 3.865 0 0 0-3.882 3.873v3.662c0 .307-.265.57-.572.57h-1.48V15.03c0-3.523-2.904-6.425-6.481-6.425a6.406 6.406 0 0 0-6.44 6.425v9.004h-1.48a.582.582 0 0 1-.573-.57v-3.662a3.865 3.865 0 0 0-3.882-3.873c-2.177 0-3.924 1.75-3.924 3.873v3.662c0 4.594 3.771 8.358 8.42 8.358h1.48V47ZM7.116 16.929a2.868 2.868 0 0 1 2.882 2.873v3.662c0 .845.726 1.57 1.573 1.57h2.48V15.03a5.41 5.41 0 0 1 5.44-5.425c3.022 0 5.481 2.448 5.481 5.425v18.438h2.48c.847 0 1.572-.725 1.572-1.57v-3.662a2.868 2.868 0 0 1 2.882-2.873 2.868 2.868 0 0 1 2.883 2.873v3.662c0 4.045-3.323 7.358-7.379 7.358h-2.48v7.694H14.092V30.822h-2.48c-4.095 0-7.42-3.312-7.42-7.358v-3.662c0-1.579 1.306-2.873 2.924-2.873Z" style="fill:#0e101a"/></svg>