<svg xmlns="http://www.w3.org/2000/svg" width="22" height="22" fill="none"><g clip-path="url(#rewrite_svg__a)"><path fill="#02BF9F" d="M2.027 12.888a2.767 2.767 0 0 0-1.832-1.832.277.277 0 0 1 0-.529 2.767 2.767 0 0 0 1.832-1.832c.08-.26.449-.26.529 0 .27.877.956 1.563 1.832 1.832.26.08.26.449 0 .529a2.767 2.767 0 0 0-1.832 1.832.277.277 0 0 1-.529 0ZM6.1 6.051a3.32 3.32 0 0 0-2.2-2.198.332.332 0 0 1 0-.635A3.32 3.32 0 0 0 6.1 1.02a.332.332 0 0 1 .635 0 3.32 3.32 0 0 0 2.198 2.198.332.332 0 0 1 0 .635A3.32 3.32 0 0 0 6.734 6.05a.332.332 0 0 1-.635 0Z"/><ellipse cx="18.302" cy="5.129" fill="#018374" rx="4.168" ry="1.075" transform="rotate(40 18.302 5.13)"/><path fill="url(#rewrite_svg__b)" d="M8.437 10.406 7.19 11.891l-.755 3.888 3.399 2.853 3.699-1.42 1.246-1.484-6.342-5.322Z"/><path fill="#565B6C" d="m6.433 15.78-.876 4.496 4.276-1.644-3.4-2.853Z"/><path fill="#01C4A4" d="M16.748 4.005c.344.154.927.55 1.558 1.08s1.128 1.04 1.334 1.348l-6.14 7.316-.843 1.005c-.754.345-1.625.282-2.257-.247-.632-.529-.84-1.372-.641-2.173l.85-1.009 6.139-7.32Z"/><path fill="#03A08A" d="M21.518 7.79c-.054-.05-.13-.112-.203-.172l-.12-.1c-.628-.525-1.21-.92-1.558-1.08l-6.986 8.32-.006.013c-.189.797.018 1.64.642 2.173.097.075.194.15.302.2l7.929-9.355Zm-6.393-5.357c.088.068.185.148.285.232.622.521 1.125 1.045 1.335 1.354l-6.993 8.32c-.748.331-1.629.272-2.248-.25-.1-.084-.192-.17-.257-.267l7.878-9.389Z"/></g><defs><linearGradient id="rewrite_svg__b" x1="5.103" x2="11.351" y1="20.993" y2="13.623" gradientUnits="userSpaceOnUse"><stop stop-color="#FFF4E0"/><stop offset="1" stop-color="#FFDD9D"/></linearGradient><clipPath id="rewrite_svg__a"><path fill="#fff" d="M0 0h22v22H0z"/></clipPath></defs></svg>