<svg xmlns="http://www.w3.org/2000/svg" width="51" height="53"><defs><filter id="gdocs-beta-logo_svg__a" width="177.4%" height="172.7%" x="-38.7%" y="-36.4%" filterUnits="objectBoundingBox"><feGaussianBlur in="SourceGraphic" stdDeviation="4"/></filter></defs><g fill="none" fill-rule="evenodd"><path fill="#878EA6" d="M3 10h31v33H3z" filter="url(#gdocs-beta-logo_svg__a)" opacity=".8" transform="translate(7)"/><path fill="#555A70" d="m8.622 28.796 3.017-2.868h27.829l3.029 2.867a2 2 0 0 1 .625 1.453v9.68a1 1 0 0 1-1 1H9a1 1 0 0 1-1-1v-9.683a2 2 0 0 1 .622-1.45z"/><path fill="#15C39A" d="M39.462 29.293H11.66A17.484 17.484 0 0 1 8 18.56C8 8.862 15.863 1 25.561 1c9.699 0 17.561 7.862 17.561 17.561 0 4.041-1.365 7.764-3.66 10.732z"/><path fill="#FFF" d="M27.59 21.818c.106.57.653.96 1.244.96h1.864l1.08-.148c-1.728 2.482-4.729 3.624-8.01 3.12-2.67-.41-4.963-2.179-5.931-4.65-2.198-5.607 1.986-10.961 7.437-10.961 2.841 0 5.334 1.627 6.761 3.594.412.568 1.132.731 1.68.36.519-.353.67-1.023.358-1.55-1.976-3.02-5.527-4.952-9.52-4.69-5.2.341-9.407 4.506-9.706 9.6-.347 5.926 4.455 10.765 10.427 10.765 3.137 0 5.946-1.338 7.86-3.502l-.227 1.242v1.121c0 .579.398 1.115.98 1.218.765.135 1.43-.436 1.43-1.16v-6.718h-6.542c-.74 0-1.323.652-1.185 1.4z"/><text fill="#FFF" font-family="&quot;SF UI Text&quot;, system, -apple-system, &quot;.SFNSDisplay-Regular&quot;, BlinkMacSystemFont, &quot;Segoe UI&quot;, &quot;Roboto&quot;, &quot;Oxygen&quot;, &quot;Ubuntu&quot;, &quot;Cantarell&quot;, &quot;Fira Sans&quot;, &quot;Droid Sans&quot;, &quot;Helvetica Neue&quot;, sans-serif" font-size="9.72" font-weight="bold" transform="translate(8 1)"><tspan x="5.854" y="37.159">BETA</tspan></text></g></svg>