<svg xmlns="http://www.w3.org/2000/svg" width="32" height="32" fill="none"><rect width="26.4" height="26.4" y="5.6" fill="#C6CBDE" rx="5"/><rect width="26.4" height="26.4" x="4.8" y=".8" fill="#fff" stroke="#4D536E" rx="5"/><g clip-path="url(#gmail_svg__a)"><path fill="#4285F4" d="M10.054 20.799h2.927v-7.005L8.8 10.701v8.86c0 .684.56 1.237 1.254 1.237z"/><path fill="#34A853" d="M23.019 20.799h2.927c.693 0 1.254-.553 1.254-1.236v-8.86l-4.181 3.09V20.8z"/><path fill="#FBBC04" d="M23.019 8.437v5.356l4.181-3.09v-1.65c0-1.024-.842-1.855-1.882-1.855-.408 0-.803.131-1.129.372l-1.17.867z"/><path fill="#EA4335" d="M12.981 13.793V8.437l5.02 3.708 5.018-3.708v5.356L18 17.503l-5.019-3.71z"/><path fill="#C5221F" d="M8.8 9.054v1.648l4.181 3.091V8.438l-1.17-.865a1.898 1.898 0 0 0-2.634.37c-.244.32-.377.71-.377 1.112z"/></g><defs><clipPath id="gmail_svg__a"><path fill="#fff" d="M8.8 7.2h18.4v13.6H8.8z"/></clipPath></defs></svg>