<svg xmlns="http://www.w3.org/2000/svg" width="47" height="47" fill="none"><rect width="37.813" height="41.278" x=".5" y="4.875" fill="#fff" stroke="#6D758D" stroke-linecap="round" rx="5.5"/><path stroke="#6D758D" stroke-linecap="round" d="M7.573 12.47h5.319m-5.319 7.197h6.153m-6.153 6.297h9.594"/><path fill="#B5DDE9" fill-rule="evenodd" d="M32.554 10.367a7 7 0 0 0-7 7v6.591a7 7 0 0 0 7 7h1.31a7 7 0 0 0 7-7v-6.59a7 7 0 0 0-7-7h-1.31Zm-.2 2.725a4 4 0 0 0-4 4v5.059a4 4 0 0 0 4 4h1.71a4 4 0 0 0 4-4v-5.06a4 4 0 0 0-4-4h-1.71Z" clip-rule="evenodd"/><path fill="#6D758D" d="M26.054 17.367a6.5 6.5 0 0 1 6.5-6.5v-1a7.5 7.5 0 0 0-7.5 7.5h1Zm0 6.591v-6.59h-1v6.59h1Zm6.5 6.5a6.5 6.5 0 0 1-6.5-6.5h-1a7.5 7.5 0 0 0 7.5 7.5v-1Zm1.31 0h-1.31v1h1.31v-1Zm6.5-6.5a6.5 6.5 0 0 1-6.5 6.5v1a7.5 7.5 0 0 0 7.5-7.5h-1Zm0-6.59v6.59h1v-6.59h-1Zm-6.5-6.5a6.5 6.5 0 0 1 6.5 6.5h1a7.5 7.5 0 0 0-7.5-7.5v1Zm-1.31 0h1.31v-1h-1.31v1Zm-3.7 6.224a3.5 3.5 0 0 1 3.5-3.5v-1a4.5 4.5 0 0 0-4.5 4.5h1Zm0 5.059v-5.06h-1v5.06h1Zm3.5 3.5a3.5 3.5 0 0 1-3.5-3.5h-1a4.5 4.5 0 0 0 4.5 4.5v-1Zm1.71 0h-1.71v1h1.71v-1Zm3.5-3.5a3.5 3.5 0 0 1-3.5 3.5v1a4.5 4.5 0 0 0 4.5-4.5h-1Zm0-5.06v5.06h1v-5.06h-1Zm-3.5-3.5a3.5 3.5 0 0 1 3.5 3.5h1a4.5 4.5 0 0 0-4.5-4.5v1Zm-1.71 0h1.71v-1h-1.71v1Z"/><rect width="26.583" height="24.99" x="19.917" y="21.163" fill="url(#login-reminder-lock_svg__a)" stroke="#6D758D" stroke-linecap="round" rx="4.5"/><path fill="#fff" fill-rule="evenodd" d="M34.504 35.613a2.934 2.934 0 1 0-2.591 0v3.309a1.296 1.296 0 0 0 2.591 0v-3.309Z" clip-rule="evenodd"/><path fill="#6D758D" d="m34.504 35.613-.22-.448-.28.138v.31h.5Zm-2.591 0h.5v-.31l-.28-.138-.22.448Zm3.73-2.633c0 .958-.554 1.787-1.36 2.185l.442.897a3.434 3.434 0 0 0 1.917-3.082h-1Zm-2.434-2.433a2.434 2.434 0 0 1 2.433 2.433h1a3.434 3.434 0 0 0-3.434-3.433v1Zm-2.435 2.433a2.434 2.434 0 0 1 2.434-2.433v-1a3.434 3.434 0 0 0-3.433 3.433h1Zm1.36 2.185a2.434 2.434 0 0 1-1.36-2.185h-1c0 1.353.783 2.522 1.918 3.082l.442-.897Zm.279 3.757v-3.309h-1v3.309h1Zm.796.795a.796.796 0 0 1-.796-.795h-1c0 .991.804 1.795 1.796 1.795v-1Zm.795-.795c0 .44-.356.795-.795.795v1c.991 0 1.795-.804 1.795-1.795h-1Zm0-3.309v3.309h1v-3.309h-1Z"/><defs><linearGradient id="login-reminder-lock_svg__a" x1="47" x2="25.468" y1="20.663" y2="41.233" gradientUnits="userSpaceOnUse"><stop offset=".035" stop-color="#B5DDE9"/><stop offset="1" stop-color="#D1CEF4"/></linearGradient></defs></svg>