<svg xmlns="http://www.w3.org/2000/svg" width="34" height="35"><g fill="none" fill-rule="evenodd"><circle cx="18.5" cy="19.5" r="15.5" fill="#FF6C83"/><circle cx="1" cy="14.955" r="1" fill="#FFF" stroke="#FFF" stroke-linecap="square" transform="translate(16 8)"/><rect width="2" height="9.939" fill="#FFF" rx="1" transform="translate(16 8)"/><path fill="#555C6A" fill-rule="nonzero" d="M16.5 32.625C7.594 32.625.375 25.405.375 16.5.375 7.594 7.595.375 16.5.375c8.906 0 16.125 7.22 16.125 16.125 0 8.906-7.22 16.125-16.125 16.125zm0-1.25c8.215 0 14.875-6.66 14.875-14.875S24.715 1.625 16.5 1.625 1.625 8.285 1.625 16.5 8.285 31.375 16.5 31.375z"/></g></svg>