<svg xmlns="http://www.w3.org/2000/svg" xmlns:xlink="http://www.w3.org/1999/xlink" width="43" height="43"><defs><filter id="gdocs-beta-small_svg__b" width="164.9%" height="263.6%" x="-32.4%" y="-65.4%" filterUnits="objectBoundingBox"><feOffset dy="2" in="SourceAlpha" result="shadowOffsetOuter1"/><feGaussianBlur in="shadowOffsetOuter1" result="shadowBlurOuter1" stdDeviation="3"/><feColorMatrix in="shadowBlurOuter1" values="0 0 0 0 0.505882353 0 0 0 0 0.537254902 0 0 0 0 0.662745098 0 0 0 0.652513587 0"/></filter><path id="gdocs-beta-small_svg__a" d="m.52 24.049 2.674-2.36H27.62l2.685 2.36c.332.291.522.712.522 1.153v7.944a.768.768 0 0 1-.768.768H.768A.768.768 0 0 1 0 33.146V25.2c0-.441.19-.86.52-1.152Z"/></defs><g fill="none" fill-rule="evenodd"><g transform="translate(5.878 .815)"><use xlink:href="#gdocs-beta-small_svg__a" fill="#000" filter="url(#gdocs-beta-small_svg__b)"/><use xlink:href="#gdocs-beta-small_svg__a" fill="#555A70"/></g><path fill="#15C39A" d="M33.493 25.246H9.09a14.942 14.942 0 0 1-3.212-9.267c0-8.375 6.9-15.164 15.413-15.164s15.414 6.789 15.414 15.164c0 3.49-1.199 6.704-3.212 9.267Z"/><path fill="#FFF" d="M23.073 18.693c.092.505.572.851 1.091.851H25.8l.948-.131c-1.517 2.198-4.15 3.21-7.03 2.764-2.344-.364-4.357-1.93-5.207-4.12-1.928-4.967 1.744-9.71 6.528-9.71 2.494 0 4.682 1.441 5.935 3.184.361.502.993.648 1.474.318.456-.312.589-.905.314-1.372a9.191 9.191 0 0 0-8.356-4.155c-4.563.302-8.256 3.992-8.519 8.504-.304 5.25 3.91 9.536 9.152 9.536 2.754 0 5.22-1.184 6.899-3.101l-.199 1.1v.993c0 .512.35.988.86 1.079a1.055 1.055 0 0 0 1.255-1.028v-5.951h-5.742a1.05 1.05 0 0 0-1.04 1.24ZM15.689 30.85c0 .47-.157.895-.538 1.186-.41.314-.903.359-1.41.359h-2.106v-5.3h2.105c.426 0 .866.06 1.225.29.388.255.612.695.612 1.15 0 .433-.202.919-.65 1.12.5.231.762.702.762 1.194Zm-1.09-2.255c0-.508-.388-.672-.821-.672H12.59v1.329h1.21c.433 0 .799-.157.799-.657Zm.112 2.232c0-.567-.396-.769-.904-.769h-1.216v1.47h1.187c.447 0 .933-.163.933-.7Zm5.65 1.56h-3.77v-5.292h3.77v.873h-2.806V29.2h2.47v.866h-2.47v1.448h2.807v.873Zm4.442-4.397h-1.567v4.397h-.963V27.99h-1.568v-.895h4.098v.895Zm4.815 4.397H28.61l-.343-1.015h-2.105l-.343 1.015h-.97l1.858-5.292h1.052l1.86 5.292Zm-1.65-1.88-.753-2.233-.754 2.232h1.507Z"/></g></svg>