<svg xmlns="http://www.w3.org/2000/svg" width="77" height="16" fill="none"><rect width="77" height="16" fill="#FFDF80" rx="3"/><path fill="#8C5404" d="M24.88 12V4.727h2.458c.57 0 1.037.103 1.4.31.364.203.634.479.809.827.175.348.263.736.263 1.164 0 .429-.088.818-.263 1.169-.173.35-.44.63-.803.838-.362.206-.826.309-1.392.309h-1.59V12h-.881zm.881-3.438h1.563c.585 0 1-.146 1.246-.44.249-.293.373-.658.373-1.094 0-.438-.124-.8-.373-1.086-.248-.29-.669-.433-1.26-.433h-1.55v3.053zM31.628 12V4.727h2.458c.568 0 1.034.097 1.399.291.364.192.634.456.81.792.175.337.262.719.262 1.147 0 .483-.111.905-.334 1.265-.22.357-.562.615-1.026.774L36.841 12H35.82l-1.534-2.844c-.06.002-.121.003-.185.003H32.51V12h-.88zm.881-3.636h1.563c.582 0 .997-.126 1.246-.377.248-.25.373-.594.373-1.03 0-.438-.126-.788-.377-1.05-.248-.266-.667-.398-1.257-.398H32.51v2.855zM38.425 12V4.727h4.389v.782h-3.508v2.457h3.28v.781h-3.28v2.472h3.565V12h-4.446zM44.8 4.727h1.051l2.472 6.037h.085l2.472-6.037h1.051V12h-.824V6.474h-.07L48.764 12h-.796l-2.273-5.526h-.07V12H44.8V4.727zm10.178 0V12h-.881V4.727h.88zm6.938 0h.88v4.816c0 .544-.128 1.01-.386 1.395a2.51 2.51 0 0 1-1.03.884 3.243 3.243 0 0 1-1.41.306 3.24 3.24 0 0 1-1.41-.306 2.51 2.51 0 0 1-1.03-.884c-.258-.386-.387-.85-.387-1.395V4.727h.881v4.816c0 .378.09.7.27.962.18.26.418.46.714.597.296.134.616.202.962.202s.667-.068.962-.202a1.74 1.74 0 0 0 .714-.597c.18-.263.27-.584.27-.962V4.727zm3.04 0h1.05l2.472 6.037h.085l2.472-6.037h1.051V12h-.824V6.474h-.07L68.92 12h-.796l-2.273-5.526h-.07V12h-.825V4.727z"/><path stroke="#8C5404" stroke-linecap="round" stroke-linejoin="round" stroke-width=".75" d="M6 7.103 8.526 4h2.527M6 7.103 12 13M6 7.103h3.474m8.526 0L15.474 4h-2.527M18 7.103 12 13m6-5.897h-3.79M12 13 9.474 7.103M12 13l2.21-5.897m-4.736 0h4.736m-4.736 0L11.053 4m3.157 3.103L12.947 4m0 0h-1.894"/></svg>