<svg xmlns="http://www.w3.org/2000/svg" width="22" height="23" fill="none"><path fill="#018374" fill-rule="evenodd" d="M14.86 17c.175-.783.664-1.472 1.253-2.037 1.32-1.268 2.137-3.023 2.137-4.963 0-3.866-3.246-7-7.25-7s-7.25 3.134-7.25 7c0 1.94.817 3.695 2.137 4.963.589.565 1.078 1.254 1.253 2.037h7.72Zm-7.568 1.5h7.416l-.055.666A2 2 0 0 1 12.66 21H9.34a2 2 0 0 1-1.993-1.834l-.055-.666Z" clip-rule="evenodd"/><mask id="light-bulb_svg__b" width="16" height="18" x="3" y="3" maskUnits="userSpaceOnUse" style="mask-type:alpha"><path fill="#018374" fill-rule="evenodd" d="M14.86 17c.175-.783.664-1.472 1.253-2.037 1.32-1.268 2.137-3.023 2.137-4.963 0-3.866-3.246-7-7.25-7s-7.25 3.134-7.25 7c0 1.94.817 3.695 2.137 4.963.589.565 1.078 1.254 1.253 2.037h7.72Zm-7.568 1.5h7.416l-.055.666A2 2 0 0 1 12.66 21H9.34a2 2 0 0 1-1.993-1.834l-.055-.666Z" clip-rule="evenodd"/></mask><g filter="url(#light-bulb_svg__a)" mask="url(#light-bulb_svg__b)" opacity=".9"><mask id="light-bulb_svg__c" fill="#fff"><path fill-rule="evenodd" d="M14.86 17c.175-.783.664-1.472 1.253-2.037 1.32-1.268 2.137-3.023 2.137-4.963 0-3.866-3.246-7-7.25-7s-7.25 3.134-7.25 7c0 1.94.817 3.695 2.137 4.963.589.565 1.078 1.254 1.253 2.037h7.72Zm-7.568 1.5h7.416l-.055.666A2 2 0 0 1 12.66 21H9.34a2 2 0 0 1-1.993-1.834l-.055-.666Z" clip-rule="evenodd"/></mask><path fill="#00FFCE" fill-rule="evenodd" d="M14.86 17c.175-.783.664-1.472 1.253-2.037 1.32-1.268 2.137-3.023 2.137-4.963 0-3.866-3.246-7-7.25-7s-7.25 3.134-7.25 7c0 1.94.817 3.695 2.137 4.963.589.565 1.078 1.254 1.253 2.037h7.72Zm-7.568 1.5h7.416l-.055.666A2 2 0 0 1 12.66 21H9.34a2 2 0 0 1-1.993-1.834l-.055-.666Z" clip-rule="evenodd"/><path fill="#018374" d="m16.113 14.963-.693-.721.693.721ZM14.86 17v1h.802l.174-.782L14.86 17Zm-8.973-2.037-.692.721.692-.721ZM7.14 17l-.976.218.174.782h.802v-1Zm7.568 1.5.997.083.09-1.083h-1.087v1Zm-7.416 0v-1H6.205l.09 1.083.997-.083Zm7.36.666-.996-.083.997.083Zm-7.305 0-.996.083.996-.083Zm8.073-4.924c-.669.642-1.303 1.496-1.536 2.54l1.952.436c.117-.522.461-1.046.97-1.534l-1.386-1.442ZM17.25 10c0 1.651-.694 3.15-1.83 4.242l1.385 1.442C18.31 14.24 19.25 12.228 19.25 10h-2ZM11 4c3.485 0 6.25 2.72 6.25 6h2c0-4.451-3.727-8-8.25-8v2Zm-6.25 6c0-3.28 2.765-6 6.25-6V2c-4.523 0-8.25 3.549-8.25 8h2Zm1.83 4.242C5.444 13.15 4.75 11.652 4.75 10h-2c0 2.228.94 4.24 2.445 5.684l1.385-1.442Zm1.536 2.54c-.233-1.044-.867-1.898-1.536-2.54l-1.385 1.442c.508.488.852 1.012.969 1.534l1.952-.436ZM14.86 16H7.14v2h7.72v-2Zm-.152 1.5H7.292v2h7.416v-2Zm.941 1.75.056-.667-1.993-.166-.056.666 1.993.166ZM12.66 22a3 3 0 0 0 2.99-2.75l-1.993-.167a1 1 0 0 1-.996.917v2Zm-3.32 0h3.32v-2H9.34v2Zm-2.99-2.75A3 3 0 0 0 9.34 22v-2a1 1 0 0 1-.996-.917l-1.993.166Zm-.055-.667.056.666 1.993-.166-.056-.666-1.993.166Z" mask="url(#light-bulb_svg__c)"/></g><g filter="url(#light-bulb_svg__d)"><path fill="#fff" d="M14.507 10.61a3.84 3.84 0 0 0-2.855 2.828l-.018.074c-.158.652-1.09.65-1.246-.002l-.012-.052a3.84 3.84 0 0 0-2.847-2.836l-.037-.009c-.656-.156-.656-1.085 0-1.242l.037-.008a3.84 3.84 0 0 0 2.847-2.836l.008-.037c.157-.653 1.09-.653 1.247 0l.009.037a3.84 3.84 0 0 0 2.846 2.836l.022.005c.657.156.656 1.087-.001 1.242Z"/></g><defs><filter id="light-bulb_svg__a" width="26.5" height="30" x="-2.25" y="-3" color-interpolation-filters="sRGB" filterUnits="userSpaceOnUse"><feFlood flood-opacity="0" result="BackgroundImageFix"/><feBlend in="SourceGraphic" in2="BackgroundImageFix" result="shape"/><feGaussianBlur result="effect1_foregroundBlur_5185_14215" stdDeviation="3"/></filter><filter id="light-bulb_svg__d" width="20" height="20" x="1" y="0" color-interpolation-filters="sRGB" filterUnits="userSpaceOnUse"><feFlood flood-opacity="0" result="BackgroundImageFix"/><feColorMatrix in="SourceAlpha" result="hardAlpha" values="0 0 0 0 0 0 0 0 0 0 0 0 0 0 0 0 0 0 127 0"/><feOffset/><feGaussianBlur stdDeviation="3"/><feComposite in2="hardAlpha" operator="out"/><feColorMatrix values="0 0 0 0 0.00392157 0 0 0 0 0.513726 0 0 0 0 0.454902 0 0 0 1 0"/><feBlend in2="BackgroundImageFix" result="effect1_dropShadow_5185_14215"/><feBlend in="SourceGraphic" in2="effect1_dropShadow_5185_14215" result="shape"/></filter></defs></svg>