<svg xmlns="http://www.w3.org/2000/svg" width="32" height="32" fill="none"><path fill="#6D758D" d="m13.62 24-.354.354a.5.5 0 0 0 .708 0L13.62 24Zm-.79-.79-.362.345.008.009.354-.354Zm-.33-.8-.498-.043a.48.48 0 0 0-.002.043h.5Zm.02-.23-.49-.102a.496.496 0 0 0-.008.059l.498.043Zm.66-3.18.49.102a.5.5 0 0 0-.49-.602v.5Zm-5.07-2.8-.442-.233a.503.503 0 0 0-.02.043l.462.19Zm2.26-4.29.442.233a.506.506 0 0 0 .017-.034l-.459-.199Zm3.604 11.736-.79-.79-.708.708.79.79.708-.708Zm-.782-.78A.661.661 0 0 1 13 22.41h-1c0 .454.19.854.468 1.145l.724-.69Zm-.194-.413.02-.23-.996-.086-.02.23.996.086Zm.012-.171.66-3.18-.98-.204-.66 3.18.98.204Zm.17-3.782H9v1h4.18v-1ZM9 18.5a.503.503 0 0 1-.5-.5h-1c0 .826.674 1.5 1.5 1.5v-1Zm-.5-.5v-1.25h-1V18h1Zm0-1.25c0-.122.026-.247.072-.36l-.924-.38a1.959 1.959 0 0 0-.148.74h1Zm.052-.317 2.26-4.29-.884-.466-2.26 4.29.884.466Zm2.277-4.324c.155-.357.51-.609.921-.609v-1c-.83 0-1.534.508-1.839 1.211l.918.398Zm.921-.609h5.75v-1h-5.75v1Zm5.75 0c.554 0 1 .446 1 1h1c0-1.106-.894-2-2-2v1Zm1 1V18h1v-5.5h-1Zm0 5.5a1 1 0 0 1-.294.706l.708.708c.36-.36.586-.866.586-1.414h-1Zm-.294.706-4.94 4.94.708.708 4.94-4.94-.708-.708ZM22 18.5a.5.5 0 0 1-.5-.5h-1a1.5 1.5 0 0 0 1.5 1.5v-1Zm-.5-.5v-6h-1v6h1Zm0-6a.5.5 0 0 1 .5-.5v-1a1.5 1.5 0 0 0-1.5 1.5h1Zm.5-.5h1v-1h-1v1Zm1 0a.5.5 0 0 1 .5.5h1a1.5 1.5 0 0 0-1.5-1.5v1Zm.5.5v6h1v-6h-1Zm0 6a.5.5 0 0 1-.5.5v1a1.5 1.5 0 0 0 1.5-1.5h-1Zm-.5.5h-1v1h1v-1Z"/></svg>