<svg xmlns="http://www.w3.org/2000/svg" width="52" height="53" fill="none"><g clip-path="url(#gdocs-shared-doc_svg__a)"><path fill="url(#gdocs-shared-doc_svg__b)" stroke="#0E101A" d="M32.437 13.126H3.718a2.97 2.97 0 0 0-2.97 2.972V49.78a2.971 2.971 0 0 0 2.97 2.972h28.719a2.97 2.97 0 0 0 2.97-2.972V16.098a2.971 2.971 0 0 0-2.97-2.972Z"/><path fill="#F9FAFF" stroke="#0E101A" d="M38.379 7.182H9.66a2.97 2.97 0 0 0-2.97 2.972v33.682a2.971 2.971 0 0 0 2.97 2.972h28.72a2.97 2.97 0 0 0 2.97-2.971V10.154a2.971 2.971 0 0 0-2.97-2.972Z"/><path stroke="#000" stroke-linecap="round" d="M14.612 23.033h18.815m-18.815 7.925h18.815m-18.815 7.925h18.815"/><path fill="#15C39A" fill-rule="evenodd" stroke="#1F243C" d="M51.252 10.154c0 5.474-4.431 9.907-9.903 9.907-5.47 0-9.902-4.433-9.902-9.907 0-5.473 4.431-9.906 9.902-9.906 5.472 0 9.903 4.433 9.903 9.906Z" clip-rule="evenodd"/><path fill="#fff" fill-rule="evenodd" d="M42.642 12.294c.06.322.361.545.693.545h1.04l.599-.084c-.96 1.411-2.634 2.06-4.461 1.773-1.486-.233-2.763-1.238-3.303-2.645-1.223-3.19 1.104-6.236 4.145-6.236 1.584 0 2.97.95 3.768 2.07a.666.666 0 0 0 1.134-.703 5.812 5.812 0 0 0-5.304-2.67c-2.896.193-5.238 2.566-5.407 5.463-.193 3.374 2.481 6.128 5.809 6.128a5.763 5.763 0 0 0 4.377-1.992l-.124.709v.639c0 .327.223.634.544.693a.673.673 0 0 0 .798-.659v-3.823h-3.645a.67.67 0 0 0-.658.797l-.005-.005Z" clip-rule="evenodd"/></g><defs><linearGradient id="gdocs-shared-doc_svg__b" x1=".426" x2="38.072" y1="13.418" y2="55.012" gradientUnits="userSpaceOnUse"><stop stop-color="#9F9AE9"/><stop offset="1" stop-color="#4A6EE0"/></linearGradient><clipPath id="gdocs-shared-doc_svg__a"><path fill="#fff" d="M.5 0h51v53H.5z"/></clipPath></defs></svg>