<svg xmlns="http://www.w3.org/2000/svg" width="24" height="24"><g fill="none" fill-rule="evenodd"><circle cx="12" cy="12" r="12" fill="#C0C2CD"/><g fill="#FFF" fill-rule="nonzero"><path d="M19.12 8.762a.593.593 0 0 1 .004.838.593.593 0 0 1-.838-.004C14.86 6.17 9.112 6.143 5.718 9.538a.593.593 0 0 1-.838-.004.593.593 0 0 1-.004-.838c3.855-3.855 10.353-3.825 14.244.066z"/><path d="M16.545 11.875a.593.593 0 0 1 .003.838.593.593 0 0 1-.838-.004c-1.94-1.94-5.2-1.955-7.122-.033a.593.593 0 0 1-.838-.004.593.593 0 0 1-.004-.838c2.383-2.383 6.394-2.364 8.799.04zm-5.957 3.841a.622.622 0 0 1 .004-.88.622.622 0 0 1 .88-.004l2.47 2.47a.622.622 0 0 1-.004.88.622.622 0 0 1-.88.004l-2.47-2.47z"/><path d="M13.089 14.809a.622.622 0 0 1 .88-.004.622.622 0 0 1-.004.88l-2.525 2.524a.622.622 0 0 1-.88.004.622.622 0 0 1 .005-.88l2.524-2.524z"/></g></g></svg>