<svg xmlns="http://www.w3.org/2000/svg" width="106" height="26" fill="none" viewBox="31 15 106 26"><path fill="#454543" fill-rule="evenodd" d="M63.935 34.807c-.387-.148-.64-.46-.64-.877a.926.926 0 0 1 1.294-.846 5.145 5.145 0 0 0 2.198.475c1.545 0 2.274-.743 2.274-2.169v-.386c-.669.802-1.397 1.292-2.6 1.292-1.858 0-3.537-1.352-3.537-3.714v-.03c0-2.377 1.708-3.713 3.536-3.713 1.233 0 1.962.52 2.57 1.188v-.016c0-.608.506-1.113 1.13-1.113.623 0 1.128.505 1.128 1.129v5.125c0 1.426-.34 2.467-1.01 3.135-.742.743-1.886 1.07-3.431 1.07a7.63 7.63 0 0 1-2.912-.55Zm5.126-6.225v-.03c0-1.084-.847-1.842-1.947-1.842-1.099 0-1.931.758-1.931 1.843v.029c0 1.099.832 1.842 1.93 1.842 1.1 0 1.948-.758 1.948-1.842Zm3.506-2.555a1.129 1.129 0 1 1 2.258 0v.356c.328-.772.862-1.485 1.531-1.485.698 0 1.099.46 1.099 1.099 0 .594-.386.95-.846 1.055-1.145.268-1.784 1.143-1.784 2.748v2.11a1.129 1.129 0 1 1-2.258 0v-5.883Zm4.621 4.635v-.03c0-1.738 1.322-2.541 3.21-2.541.802 0 1.382.134 1.946.327v-.133c0-.936-.58-1.456-1.71-1.456-.623 0-1.128.09-1.56.223a.953.953 0 0 1-.325.059.92.92 0 0 1-.937-.922c0-.4.252-.742.61-.875.713-.268 1.485-.416 2.54-.416 1.233 0 2.124.327 2.69.89.593.595.86 1.472.86 2.541v3.625c0 .61-.49 1.085-1.099 1.085-.653 0-1.085-.46-1.085-.936v-.015c-.549.61-1.306 1.01-2.407 1.01-1.5 0-2.733-.861-2.733-2.436Zm5.186-.52v-.401a3.488 3.488 0 0 0-1.442-.297c-.966 0-1.56.386-1.56 1.1v.028c0 .61.505.966 1.233.966 1.055 0 1.769-.579 1.769-1.396Zm3.342-4.115a1.129 1.129 0 1 1 2.259 0v.089c.52-.669 1.204-1.277 2.348-1.277 1.039 0 1.827.46 2.243 1.261.698-.816 1.53-1.262 2.615-1.262 1.679 0 2.689 1.01 2.689 2.927v4.145a1.129 1.129 0 1 1-2.259 0v-3.402c0-1.07-.475-1.62-1.322-1.62-.846 0-1.366.55-1.366 1.62v3.402a1.129 1.129 0 1 1-2.259 0v-3.402c0-1.07-.475-1.62-1.323-1.62-.846 0-1.366.55-1.366 1.62v3.402a1.129 1.129 0 1 1-2.259 0v-5.883Zm13.374 0a1.129 1.129 0 1 1 2.258 0v.089c.519-.669 1.203-1.277 2.347-1.277 1.04 0 1.828.46 2.243 1.261.699-.816 1.531-1.262 2.615-1.262 1.679 0 2.69 1.01 2.69 2.927v4.145a1.13 1.13 0 0 1-2.259 0v-3.402c0-1.07-.476-1.62-1.323-1.62-.846 0-1.366.55-1.366 1.62v3.402a1.129 1.129 0 1 1-2.259 0v-3.402c0-1.07-.475-1.62-1.322-1.62-.847 0-1.366.55-1.366 1.62v3.402a1.129 1.129 0 1 1-2.259 0v-5.883Zm12.896 4.635v-.03c0-1.738 1.322-2.541 3.209-2.541.802 0 1.382.134 1.946.327v-.133c0-.936-.578-1.456-1.709-1.456-.623 0-1.128.09-1.56.223a.944.944 0 0 1-.326.059.919.919 0 0 1-.936-.922c0-.4.253-.742.609-.875.713-.268 1.485-.416 2.54-.416 1.234 0 2.125.327 2.69.89.594.595.862 1.472.862 2.541v3.625c0 .61-.491 1.085-1.099 1.085-.655 0-1.085-.46-1.085-.936v-.015c-.55.61-1.308 1.01-2.407 1.01-1.501 0-2.734-.861-2.734-2.436Zm5.185-.52v-.401a3.486 3.486 0 0 0-1.441-.297c-.965 0-1.561.386-1.561 1.1v.028c0 .61.505.966 1.234.966 1.055 0 1.768-.579 1.768-1.396Zm3.344-4.115a1.129 1.129 0 1 1 2.257 0v.356c.328-.772.863-1.485 1.531-1.485.698 0 1.1.46 1.1 1.099 0 .594-.387.95-.847 1.055-1.144.268-1.784 1.143-1.784 2.748v2.11a1.128 1.128 0 1 1-2.257 0v-5.883Zm5.571-2.883a1.129 1.129 0 1 1 2.259 0v8.766a1.13 1.13 0 0 1-2.259 0v-8.766Zm4.057 12.02c-.327-.119-.714-.387-.714-.937s.431-.921.892-.921c.178 0 .281.03.371.06.193.06.312.09.475.09.401 0 .595-.075.803-.476l.074-.18-2.718-6.298a1.636 1.636 0 0 1-.119-.52c0-.638.49-1.084 1.114-1.084.564 0 .891.311 1.085.846l1.723 4.636 1.664-4.621c.179-.475.505-.861 1.084-.861.58 0 1.07.446 1.07 1.039 0 .179-.059.431-.104.535l-2.778 6.672c-.669 1.619-1.338 2.228-2.689 2.228-.506 0-.862-.074-1.233-.208Z" clip-rule="evenodd"/><path fill="#15C39A" fill-rule="evenodd" d="M57 28.21c0 6.903-5.596 12.5-12.5 12.5-6.903 0-12.5-5.597-12.5-12.5 0-6.904 5.597-12.5 12.5-12.5 6.904 0 12.5 5.596 12.5 12.5Z" clip-rule="evenodd"/><path fill="#FC0" d="M44.5 40.71c6.904 0 12.5-5.597 12.5-12.5H32c0 6.903 5.597 12.5 12.5 12.5Z"/><path fill="#06C" d="M44.5 15.71c-6.903 0-12.5 5.596-12.5 12.5h25c0-6.904-5.596-12.5-12.5-12.5Z"/><path fill="#06C" fill-opacity=".15" fill-rule="evenodd" d="M46.134 31.709c.074.409.458.69.874.69h1.31l.76-.107c-1.216 1.782-3.325 2.602-5.63 2.24-1.878-.294-3.49-1.564-4.17-3.338-1.545-4.027 1.395-7.872 5.227-7.872 1.998 0 3.75 1.2 4.754 2.612a.851.851 0 0 0 1.18.227.838.838 0 0 0 .252-1.112 7.334 7.334 0 0 0-6.693-3.368c-3.654.245-6.612 3.236-6.822 6.893-.245 4.255 3.131 7.73 7.33 7.73 2.205 0 4.18-.96 5.524-2.514l-.159.891v.806c0 .415.28.8.69.874a.848.848 0 0 0 1.004-.833v-4.824h-4.599c-.52 0-.93.468-.832 1.005Z" clip-rule="evenodd"/><path fill="#fff" fill-rule="evenodd" d="M46.134 30.909c.074.41.458.69.874.69h1.31l.76-.107c-1.216 1.782-3.325 2.602-5.63 2.24-1.878-.294-3.49-1.564-4.17-3.338-1.545-4.027 1.395-7.871 5.227-7.871 1.998 0 3.75 1.199 4.754 2.611a.851.851 0 0 0 1.18.228.838.838 0 0 0 .252-1.113 7.334 7.334 0 0 0-6.693-3.368c-3.654.245-6.612 3.236-6.822 6.893-.245 4.256 3.131 7.73 7.33 7.73 2.205 0 4.18-.96 5.524-2.514l-.159.891v.806c0 .415.28.8.69.874a.848.848 0 0 0 1.004-.833v-4.824h-4.599c-.52 0-.93.468-.832 1.005Z" clip-rule="evenodd"/></svg>