<svg xmlns="http://www.w3.org/2000/svg" xmlns:xlink="http://www.w3.org/1999/xlink" width="228" height="85" viewBox="0 0 227 85"><defs><clipPath id="gb-sign-popup-bg_svg__b"><path d="M0 0h228v85H0z"/></clipPath><clipPath id="gb-sign-popup-bg_svg__c"><path d="M0 0h228v85H0z"/></clipPath><clipPath id="gb-sign-popup-bg_svg__d"><path d="M0 0h228v85H0z"/></clipPath><clipPath id="gb-sign-popup-bg_svg__l"><path d="M158.188 7.945h31.62v33.989h-31.62Zm0 0"/></clipPath><clipPath id="gb-sign-popup-bg_svg__e"><path d="M0 0h228v85H0z"/></clipPath><mask id="gb-sign-popup-bg_svg__g"><g filter="url(#gb-sign-popup-bg_svg__a)"><path d="M0 0h227v85H0z" style="fill:#000;fill-opacity:.501961;stroke:none"/></g></mask><mask id="gb-sign-popup-bg_svg__i"><g filter="url(#gb-sign-popup-bg_svg__a)"><path d="M0 0h227v85H0z" style="fill:#000;fill-opacity:.501961;stroke:none"/></g></mask><mask id="gb-sign-popup-bg_svg__k"><g filter="url(#gb-sign-popup-bg_svg__a)"><path d="M0 0h227v85H0z" style="fill:#000;fill-opacity:.301961;stroke:none"/></g></mask><mask id="gb-sign-popup-bg_svg__n"><g filter="url(#gb-sign-popup-bg_svg__a)"><path d="M0 0h227v85H0z" style="fill:#000;fill-opacity:.4;stroke:none"/></g></mask><g id="gb-sign-popup-bg_svg__f" clip-path="url(#gb-sign-popup-bg_svg__b)"><path d="M8.159 52.807h23.31c3.947 0 7.147 3.343 7.147 7.474v32.05c0 4.131-3.2 7.475-7.146 7.475H8.159c-3.951 0-7.147-3.344-7.147-7.474V60.28c0-4.13 3.196-7.474 7.147-7.474Zm0 0" style="fill-rule:nonzero;fill:#fff;fill-opacity:1;stroke-width:1;stroke-linecap:round;stroke-linejoin:round;stroke:#6d758d;stroke-opacity:1;stroke-miterlimit:10" transform="scale(.79094 .7944)"/><path d="M6.559 74.634h26.323M6.56 82.512h26.323M6.56 67.455h26.323M6.56 60.281h26.323" style="fill:none;stroke-width:1;stroke-linecap:round;stroke-linejoin:round;stroke:#6d758d;stroke-opacity:1;stroke-miterlimit:10" transform="scale(.79094 .7944)"/><path d="M51.501 82.512c0 7.18-5.823 12.996-12.999 12.996-7.18 0-12.998-5.817-12.998-12.996 0-7.18 5.817-13.001 12.998-13.001 7.176 0 13 5.822 13 13Zm0 0" style="fill-rule:nonzero;fill:#fff;fill-opacity:1;stroke-width:1;stroke-linecap:round;stroke-linejoin:miter;stroke:#6d758d;stroke-opacity:1;stroke-miterlimit:4" transform="scale(.79094 .7944)"/><path d="m32.2 82.512 4.5 4.5 8.998-9.004" style="fill:none;stroke-width:1;stroke-linecap:round;stroke-linejoin:miter;stroke:#6d758d;stroke-opacity:1;stroke-miterlimit:4" transform="scale(.79094 .7944)"/></g><g id="gb-sign-popup-bg_svg__h" clip-path="url(#gb-sign-popup-bg_svg__c)"><path d="M267.428 100.868c9.077 0 16.431-7.425 16.431-16.586 0-9.16-7.354-16.586-16.431-16.586-9.073 0-16.426 7.425-16.426 16.586 0 9.161 7.353 16.586 16.426 16.586Zm0 0" style="fill-rule:nonzero;fill:#fff;fill-opacity:1;stroke-width:1;stroke-linecap:butt;stroke-linejoin:round;stroke:#6d758d;stroke-opacity:1;stroke-miterlimit:10" transform="scale(.79094 .7944)"/><path d="M206.04 66.238c.655 0 1.187-.535 1.187-1.195a1.19 1.19 0 0 0-1.188-1.191 1.19 1.19 0 0 0-1.184 1.191c0 .66.532 1.195 1.184 1.195Zm10.265 0a1.19 1.19 0 0 0 1.187-1.195 1.19 1.19 0 0 0-1.187-1.191 1.19 1.19 0 0 0-1.188 1.191c0 .66.531 1.195 1.188 1.195Zm0 0" style="stroke:none;fill-rule:nonzero;fill:#6d758d;fill-opacity:1"/><path d="M272.001 90.183c-1.25 1.087-2.919 1.82-4.795 1.82-2.08 0-3.956-.728-5.206-2.002" style="fill:none;stroke-width:1;stroke-linecap:round;stroke-linejoin:miter;stroke:#6d758d;stroke-opacity:1;stroke-miterlimit:10" transform="scale(.79094 .7944)"/><path d="M224.785 81.234a.394.394 0 0 0 .555-.004.397.397 0 0 0 .004-.554Zm-4.375-4.39 4.375 4.39.559-.558-4.375-4.395Zm0 0" style="stroke:none;fill-rule:nonzero;fill:#6d758d;fill-opacity:1"/></g><g id="gb-sign-popup-bg_svg__j" clip-path="url(#gb-sign-popup-bg_svg__d)"><path d="M62.999.502h29A5.499 5.499 0 0 1 97.5 5.999v29.002a5.502 5.502 0 0 1-5.502 5.498h-29A5.498 5.498 0 0 1 57.502 35V6A5.494 5.494 0 0 1 62.999.502Zm0 0" style="fill-rule:nonzero;fill:#fff;fill-opacity:1;stroke-width:1;stroke-linecap:round;stroke-linejoin:miter;stroke:#6d758d;stroke-opacity:1;stroke-miterlimit:4" transform="scale(.79094 .7944)"/><path d="M93.001 41a6 6 0 0 1-6 6H56.998a5.995 5.995 0 0 1-5.996-6V12.937a5.933 5.933 0 0 1 5.932-5.935" style="fill:none;stroke-width:1;stroke-linecap:round;stroke-linejoin:miter;stroke:#6d758d;stroke-opacity:1;stroke-miterlimit:4" transform="scale(.79094 .7944)"/><path d="m61.472 27.699 5.285-9.16a3 3 0 0 1 4.865-.463l5.417 6.25a3.005 3.005 0 0 0 4.628-.113L90.457 13" style="fill:none;stroke-width:1;stroke-linecap:round;stroke-linejoin:miter;stroke:#6d758d;stroke-opacity:1;stroke-miterlimit:4" transform="scale(.79094 .7944)"/><path d="M93.001 11.998a1.999 1.999 0 1 1-4.003.005 1.999 1.999 0 0 1 4.003-.005Zm0 0" style="fill-rule:nonzero;fill:#fff;fill-opacity:1;stroke-width:1;stroke-linecap:round;stroke-linejoin:miter;stroke:#6d758d;stroke-opacity:1;stroke-miterlimit:4" transform="scale(.79094 .7944)"/></g><g id="gb-sign-popup-bg_svg__m" clip-path="url(#gb-sign-popup-bg_svg__e)"><path d="m232.378 24.439-22.877-.153c-3.95 0-7.146-3.19-7.146-6.992 0-3.875 3.27-6.992 7.22-6.914l22.877.153c3.95 0 7.146 3.191 7.146 6.992s-3.27 6.993-7.22 6.914Zm0 0" style="fill-rule:nonzero;fill:#fff;fill-opacity:1;stroke-width:.76;stroke-linecap:round;stroke-linejoin:round;stroke:#6d758d;stroke-opacity:1;stroke-miterlimit:10" transform="scale(.79094 .7944)"/><path d="M232.605 24.439c3.877 0 6.993-3.113 6.993-6.914 0-3.875-3.116-6.992-6.92-6.992-3.797 0-6.992 3.117-6.992 6.914-.075 3.88 3.042 6.992 6.919 6.992ZM209.5 32.115l22.877.152c3.95 0 7.141 3.192 7.141 6.993 0 3.88-3.265 6.992-7.22 6.918l-22.877-.152c-3.95 0-7.141-3.192-7.141-6.993 0-3.88 3.27-6.992 7.22-6.918Zm0 0" style="fill-rule:nonzero;fill:#fff;fill-opacity:1;stroke-width:.76;stroke-linecap:round;stroke-linejoin:round;stroke:#6d758d;stroke-opacity:1;stroke-miterlimit:10" transform="scale(.79094 .7944)"/><path d="M209.274 32.115c-3.877-.074-6.993 3.039-6.993 6.918 0 3.875 3.116 6.993 6.914 6.993 3.877 0 6.993-3.118 6.993-6.919.074-3.875-3.042-6.992-6.914-6.992Zm0 0" style="fill-rule:nonzero;fill:#fff;fill-opacity:1;stroke-width:.76;stroke-linecap:round;stroke-linejoin:round;stroke:#6d758d;stroke-opacity:1;stroke-miterlimit:10" transform="scale(.79094 .7944)"/></g><filter id="gb-sign-popup-bg_svg__a" width="100%" height="100%" x="0%" y="0%" filterUnits="objectBoundingBox"><feColorMatrix in="SourceGraphic" values="0 0 0 0 1 0 0 0 0 1 0 0 0 0 1 0 0 0 1 0"/></filter></defs><use xlink:href="#gb-sign-popup-bg_svg__f" mask="url(#gb-sign-popup-bg_svg__g)"/><use xlink:href="#gb-sign-popup-bg_svg__h" mask="url(#gb-sign-popup-bg_svg__i)"/><use xlink:href="#gb-sign-popup-bg_svg__j" mask="url(#gb-sign-popup-bg_svg__k)"/><path d="M116.27 27.938c-13.465 0-24.387 10.972-24.387 24.492 0 13.52 10.922 24.492 24.387 24.492 13.46 0 24.386-10.973 24.386-24.492 0-13.52-10.926-24.492-24.386-24.492Zm2.437 36.738h-4.879v-4.899h4.879Zm0-9.797h-4.879V40.184h4.879Zm0 0" style="stroke:none;fill-rule:evenodd;fill:#c44242;fill-opacity:1"/><g clip-path="url(#gb-sign-popup-bg_svg__l)"><use xlink:href="#gb-sign-popup-bg_svg__m" mask="url(#gb-sign-popup-bg_svg__n)"/></g></svg>