<svg xmlns="http://www.w3.org/2000/svg" width="256" height="48" fill="none"><g clip-path="url(#proofreaders_svg__a)"><circle cx="23.895" cy="23.895" r="22.895" fill="#99C2FF"/><path fill="#74D9FA" stroke="#303A68" stroke-miterlimit="10" stroke-width=".898" d="M32.04 13.81c-2.277-4.164-4.555-7.981-12.13-4.908-6.336 2.528-5.247 10.905-3.167 17.993.297 1.041.198 2.132-.347 3.073l-5.347 9.616 17.575 3.322-.792-7.337c-.248-2.379 1.04-4.61 3.168-5.7 1.386-.743 1.485-2.379 2.525-7.286h3.02l-4.505-8.774Z"/><path fill="#74D9FA" stroke="#303A68" stroke-miterlimit="10" stroke-width=".898" d="M96.2 90.193 47.831 81.37l-21.98-35.788c-4.406-7.187-14.456-8.228-20.248-2.082C1.644 47.664 1 53.96 3.92 58.916l26.338 43.917H94.02s18.119-1.091 32.971-1.091c-8.614-22.95-22.03-16.506-30.793-11.549Z"/><path fill="#74D9FA" stroke="#303A68" stroke-miterlimit="10" stroke-width=".898" d="m117.635 97.33-48.367-8.822-21.98-35.788c-4.407-7.187-14.456-8.228-20.249-2.082-3.96 4.164-4.604 10.459-1.683 15.416l26.337 43.916h63.714s18.12-1.09 32.971-1.09c-8.564-22.9-21.98-16.506-30.743-11.55Z"/><path fill="#FFCEDD" stroke="#303A68" stroke-miterlimit="10" stroke-width=".898" d="m-38.952 112.201 38.12-67.015c5.792-10.162 17.426-14.127 27.377-9.369l7.227 3.47c9.456 4.56 12.179 17.696 10.248 28.898l-5.297 44.016h-77.675Z"/><path fill="#FFCEDD" stroke="#303A68" stroke-miterlimit="10" stroke-width=".898" d="m18.772 66.599 22.476 33.507L67.04 80.825 46.15 48.507c-5.1-7.882-15.693-9.864-23.317-4.412-7.179 5.155-8.96 15.118-4.06 22.504Z"/><path fill="#303A68" d="M13.772 25.26C9.911 14.8 12.138 8.752 18.722 6.026c6.585-2.726 12.08 1.09 14.308 3.321a58.85 58.85 0 0 0-6.04 3.817c-1.188.843-1.832 2.23-1.634 3.668.1 1.04.198 2.032.297 2.825.1.992-1.089 1.537-1.782.843l-.742-.744c-1.04-1.04-2.822.05-2.327 1.438.693 2.082 1.782 4.064 1.782 4.064h-8.812Z"/></g><rect width="45" height="45" x="1" y="1" stroke="#fff" stroke-width=".898" rx="22.5"/><g clip-path="url(#proofreaders_svg__b)"><circle cx="64.299" cy="23.895" r="22.895" fill="#99C2FF"/><path fill="#68DEC2" stroke="#303A68" stroke-miterlimit="10" stroke-width=".898" d="M59.046 31.63c-3.616-1.182-10.02 4.793-14.347 26.742-4.328 21.948-5.276 27.924-5.276 27.924H95.15s-12.45-23.369-27.508-49.4c-4.802-6.212-7.173-4.792-8.596-5.265Z"/><path fill="#68DEC2" stroke="#303A68" stroke-miterlimit="10" stroke-width=".898" d="m120.464 84.225-1.541-16.388L87.147 66.3 70.844 42.28c-3.32-4.85-10.138-5.62-14.466-1.656-3.32 3.077-4.031 7.987-1.778 11.832l17.666 30.232 48.198 1.538Z"/><path fill="#FB94B3" stroke="#303A68" stroke-miterlimit="10" stroke-width=".898" d="m71.436 15.42 6.225 7.632-2.846.474s1.423 11.95-9.07 6.212c-1.423-.474-2.846 2.366-.949 4.792 1.898 2.366-8.596 1.893-7.173-3.313.237-6.922.237-8.816.237-8.816-1.423-4.792-.711-8.815 5.514-10.767 6.165-1.952 6.64 1.834 8.062 3.787Z"/><path fill="#303A68" d="M39.957 1.4c4.209-3.728 12.39 4.259 17.607 9.05.118-.058.237-.177.356-.236 6.343-4.378 10.79-3.609 16.066 2.78.296.415.237.947-.178 1.243-2.194 1.42-4.447 2.78-5.395 3.313-.237.119-.415.414-.415.71 0 .947-.119 2.248-.237 3.372-.06.829-1.186 1.065-1.6.355-.416-.71-1.483-.473-1.602.355-.177 2.308-1.067 4.852-4.209 4.556-4.209-.355-7.292-6.981-5.691-12.247C42.447 10.628 35.747 5.126 39.957 1.4Z"/></g><rect width="45" height="45" x="41.403" y="1" stroke="#fff" stroke-width=".898" rx="22.5"/><g clip-path="url(#proofreaders_svg__c)"><circle cx="104.702" cy="23.895" r="22.895" fill="#99C2FF"/><path fill="#68DEC2" stroke="#303A68" stroke-miterlimit="10" stroke-width=".898" d="M112.846 13.81c-2.277-4.164-4.555-7.981-12.129-4.908-6.337 2.528-5.248 10.905-3.168 17.993.297 1.041.198 2.131-.347 3.073l-5.346 9.616 17.574 3.322-.792-7.337c-.247-2.379.522-5.6 4.492-5.6.441-2.498.882-5.146 1.201-7.386h3.02l-4.505-8.774Z"/><ellipse cx="111.885" cy="17.161" fill="#fff" stroke="#303A68" stroke-miterlimit="10" stroke-width=".898" rx="2.245" ry="3.591"/><ellipse cx="116.374" cy="17.161" fill="#fff" stroke="#303A68" stroke-miterlimit="10" stroke-width=".898" rx="2.245" ry="3.591"/><path fill="#74D9FA" stroke="#303A68" stroke-miterlimit="10" stroke-width=".898" d="m177.006 90.193-48.367-8.823-21.981-35.788c-4.406-7.187-14.456-8.228-20.248-2.082-3.96 4.164-4.604 10.46-1.683 15.416l26.337 43.917h63.764s18.119-1.091 32.971-1.091c-8.614-22.95-22.03-16.506-30.793-11.549Z"/><path fill="#74D9FA" stroke="#303A68" stroke-miterlimit="10" stroke-width=".898" d="m198.442 97.33-48.367-8.822-21.981-35.788c-4.406-7.187-14.456-8.228-20.248-2.082-3.96 4.164-4.604 10.459-1.683 15.416L132.5 109.97h63.714s18.119-1.09 32.971-1.09c-8.564-22.9-21.981-16.506-30.743-11.55Z"/><path fill="#74D9FA" stroke="#303A68" stroke-miterlimit="10" stroke-width=".898" d="m41.855 112.201 38.12-67.015c5.792-10.162 17.425-14.127 27.376-9.369l7.228 3.47c9.456 4.56 12.178 17.696 10.248 28.898l-5.297 44.016H41.855Z"/><path fill="#74D9FA" stroke="#303A68" stroke-miterlimit="10" stroke-width=".898" d="m99.578 66.599 22.476 33.507 25.793-19.281-20.892-32.319c-5.099-7.88-15.693-9.863-23.317-4.411-7.178 5.155-8.96 15.118-4.06 22.504Z"/><path fill="#303A68" d="M111.014 12.233s8.015-3.914 4.153-9.153c-2.275-3.088-4.794-2.168-6.473-.873-1.236.95-2.854 1.107-4.259.452-1.343-.624-3.068-1.014-4.564-.031-1.328.873-2.626 4.755-2.489 5.956-3.312-.062-8.182 4.537-2.06 13.379 0 0 2.518 4.787 2.305 8.155.9-2.604 5.282-10.182 5.282-10.182s-3.19-2.932-1.695-4.46c1.496-1.528 3.572 2.027 3.755 3.54l.474 3.15 1.557-.188-1.008-8.108 5.022-1.637Z"/></g><rect width="45" height="45" x="81.807" y="1" stroke="#fff" stroke-width=".898" rx="22.5"/><g clip-path="url(#proofreaders_svg__d)"><circle cx="145.105" cy="23.895" r="22.895" fill="#99C2FF"/><path fill="#68DEC2" stroke="#303A68" stroke-miterlimit="10" stroke-width=".898" d="M142.852 31.63c-3.616-1.182-10.019 4.793-14.347 26.742-4.327 21.948-5.276 27.924-5.276 27.924h55.727s-12.45-23.369-27.508-49.4c-4.802-6.212-7.173-4.792-8.596-5.265Z"/><path fill="#68DEC2" stroke="#303A68" stroke-miterlimit="10" stroke-width=".898" d="m204.271 84.225-1.542-16.388-31.776-1.538-16.303-24.02c-3.32-4.85-10.138-5.62-14.466-1.656-3.32 3.077-4.031 7.987-1.778 11.832l17.667 30.232 48.198 1.538Z"/><path fill="#74D9FA" stroke="#303A68" stroke-miterlimit="10" stroke-width=".898" d="m155.242 15.42 6.225 7.632-2.845.474s1.422 11.95-9.071 6.212c-1.423-.474-2.845 2.366-.948 4.792 1.897 2.366-8.597 1.893-7.174-3.314.237-6.921.237-8.815.237-8.815-1.422-4.792-.711-8.815 5.514-10.767 6.165-1.952 6.64 1.834 8.062 3.786Z"/><path fill="#303A68" stroke="#303A68" stroke-miterlimit="10" stroke-width=".898" d="M101.421 7.793c.319-.692.739-1.356 1.321-1.824.935-.751 2.185-.906 3.303-.692 1.117.215 2.136.76 3.137 1.3-.658-1.715-1.319-3.655-.624-5.423.636-1.617 2.314-2.624 3.939-2.763 1.628-.139 3.201.451 4.615 1.231a18.075 18.075 0 0 1 6.072 5.505c.597.86 1.413 1.892 2.416 1.575.504-.16.864-.627 1.252-1.01 1.515-1.492 3.807-1.845 5.708-1.221.413.656 1.113.97 7.49.15 1.665-.212 3.234.698 4.461 1.83a13.13 13.13 0 0 1 2.034 2.393c.423-.205.898-.28 1.359-.306a7.927 7.927 0 0 1 5.028 1.44c1.046.743 1.977 2.14 1.377 3.38-.405.832-1.351 1.213-2.217 1.295-.866.082-1.739-.05-2.597.125.988-.015 1.562 1.478.872 2.262-.22.249-.689.355-.715.689-.077 1.036 1.211 2.237.103 2.303-.886.054-1.474-2.61-2.375-1.35a1.836 1.836 0 0 0-.332 1.09c.011.69.307 1.297.524 1.925.43 1.246.54 2.681.035 3.945-.505 1.262-1.715 2.284-2.985 2.244-1.665-.05-2.555-.412-3.498-1.776a.82.82 0 0 0-.529-.354c-.395-.07-.548.504-.675.762-.493 1.007-.561 1.13-1.193 2.052-1.192 1.737-3.986 1.42-5.754.566-1.77-.855-3.017-2.53-4.199-4.154-.531.922-1.089 1.874-1.926 2.491-1.411 1.04-3.323.872-4.805.11-1.483-.761-2.656-2.024-3.894-3.165-.402-.37-.848-.745-1.389-.794-.623-.055-1.213.33-1.805.587-2.307 1-4.862.044-6.949-1.214-2.507-1.513-4.81-3.528-6.188-6.216-1.371-2.691-1.712-6.126-.397-8.988Z"/></g><rect width="45" height="45" x="122.21" y="1" stroke="#fff" stroke-width=".898" rx="22.5"/><defs><clipPath id="proofreaders_svg__a"><rect width="45" height="45" x="1" y="1" fill="#fff" rx="22.5"/></clipPath><clipPath id="proofreaders_svg__b"><rect width="45" height="45" x="41.403" y="1" fill="#fff" rx="22.5"/></clipPath><clipPath id="proofreaders_svg__c"><rect width="45" height="45" x="81.807" y="1" fill="#fff" rx="22.5"/></clipPath><clipPath id="proofreaders_svg__d"><rect width="45" height="45" x="122.21" y="1" fill="#fff" rx="22.5"/></clipPath></defs></svg>