<svg xmlns="http://www.w3.org/2000/svg" width="20" height="13" fill="none"><path fill="#15C39A" stroke="#0E101A" stroke-miterlimit="10" stroke-width=".5" d="M14.28 12c2.894 0 5.258-2.447 5.258-5.5S17.198 1 14.28 1 9.022 3.447 9.022 6.5s2.34 5.5 5.258 5.5Z"/><path stroke="#fff" stroke-linecap="round" stroke-width=".5" d="m11.89 6.5 1.913 2 3.26-3.94"/><path fill="#F8E485" stroke="#0E101A" stroke-miterlimit="10" stroke-width=".5" d="M5.676 12c2.904 0 5.258-2.462 5.258-5.5S8.58 1 5.676 1 .418 3.462.418 6.5 2.772 12 5.676 12Z"/><path stroke="#000" stroke-width=".5" d="M4.233 8.399a2.392 2.392 0 0 0 2.892 0"/><path fill="#0E101A" d="M3.393 5.98c.251 0 .455-.283.455-.63 0-.35-.204-.632-.455-.632s-.455.283-.455.631c0 .348.204.63.455.63Zm4.523 0c.25 0 .454-.283.454-.63 0-.35-.203-.632-.454-.632s-.455.283-.455.631c0 .348.204.63.455.63Z"/></svg>